<?xml version="1.0" standalone="no"?>
<!DOCTYPE svg PUBLIC "-//W3C//DTD SVG 20010904//EN"
 "http://www.w3.org/TR/2001/REC-SVG-20010904/DTD/svg10.dtd">
<svg version="1.0" xmlns="http://www.w3.org/2000/svg"
 width="900.000890pt" height="650.000899pt" viewBox="0 0 900.000890 650.000899"
 preserveAspectRatio="xMidYMid meet">
<metadata>
Created by potrace 1.12, written by Peter Selinger 2001-2015
</metadata>
<g transform="translate(0.000114,650.000759) scale(0.100000,-0.100000)"
fill="#000000" stroke="none">
<path d="M2188 6110 c2 -384 3 -390 22 -378 19 12 20 28 22 390 l3 378 -25 0
-25 0 3 -390z"/>
<path d="M6358 5950 c2 -459 5 -550 16 -550 14 0 26 -21 26 -46 0 -8 -6 -11
-15 -8 -8 4 -15 10 -15 16 0 5 5 6 11 2 7 -4 10 -1 7 6 -2 8 -10 16 -16 18 -9
3 -12 -259 -12 -1131 0 -1121 0 -1134 20 -1152 11 -10 20 -26 20 -36 0 -11 -9
-24 -20 -31 -17 -11 -20 -24 -20 -80 0 -56 3 -66 15 -62 8 4 22 1 30 -6 14
-12 15 142 15 1434 -1 795 -3 1446 -6 1446 -3 0 -9 -10 -14 -22 -6 -16 -9 -18
-9 -7 -1 9 6 22 14 29 13 11 15 65 15 371 l0 359 -32 0 -33 0 3 -550z"/>
<path d="M2250 6306 c0 -169 1 -174 20 -169 11 3 20 0 20 -6 0 -6 -5 -11 -11
-11 -8 0 -8 -5 1 -15 16 -19 5 -49 -15 -41 -9 3 -15 0 -15 -9 0 -13 87 -15
670 -15 l670 0 0 220 0 220 -670 0 -670 0 0 -174z m370 -186 c0 -22 5 -40 13
-43 6 -2 9 -8 4 -12 -4 -5 -11 -4 -16 1 -12 12 -21 105 -10 98 5 -3 9 -23 9
-44z m-230 23 c11 -10 20 -30 20 -45 0 -36 -20 -37 -21 0 l-2 27 -4 -27 c-7
-45 -23 -32 -23 17 0 25 2 45 5 45 3 0 14 -8 25 -17z m122 -75 c-6 -6 -15 -7
-21 -4 -17 11 -13 57 7 76 16 16 17 15 20 -23 2 -22 -1 -44 -6 -49z m358 48
c0 -43 -18 -65 -41 -50 -15 9 -10 56 9 75 26 27 32 23 32 -25z m99 10 c-12
-13 -12 -46 1 -46 6 0 10 -5 10 -11 0 -24 -25 0 -31 31 -9 43 -2 64 16 47 8
-7 10 -16 4 -21z m-619 4 c0 -5 -7 -10 -15 -10 -19 0 -20 -29 0 -36 8 -4 13
-10 10 -15 -3 -4 -12 -6 -20 -2 -15 5 -21 54 -8 66 10 11 33 8 33 -3z m110 6
c0 -2 3 -11 6 -19 4 -11 -2 -17 -18 -19 l-23 -5 24 -10 c17 -7 21 -12 12 -17
-26 -16 -57 45 -34 67 7 8 33 10 33 3z m103 -46 c3 8 8 24 10 35 3 11 5 4 6
-16 1 -23 -4 -39 -13 -42 -20 -8 -26 2 -25 42 l2 36 7 -35 c4 -22 9 -30 13
-20z m127 46 c0 -2 3 -11 6 -20 4 -12 0 -16 -15 -16 -12 0 -21 -4 -21 -10 0
-5 10 -10 22 -10 15 0 19 -3 12 -10 -18 -18 -44 0 -44 29 0 15 3 31 7 34 7 8
33 10 33 3z m118 -19 c2 -10 -3 -17 -12 -17 -9 0 -16 -4 -16 -10 0 -5 8 -10
17 -10 13 0 14 -3 5 -12 -14 -14 -42 6 -42 31 0 37 42 52 48 18z m102 -7 c0
-17 5 -30 12 -30 9 0 9 -3 1 -11 -7 -7 -20 -9 -30 -5 -14 6 -15 9 -4 15 9 6
11 18 7 35 -4 15 -2 26 4 26 5 0 10 -13 10 -30z m128 -1 c2 -14 -3 -31 -11
-37 -21 -18 -41 10 -33 44 9 33 40 29 44 -7z m62 21 c0 -5 -6 -10 -14 -10 -8
0 -17 -12 -19 -27 -4 -27 -4 -27 -6 4 -1 28 8 40 32 42 4 1 7 -3 7 -9z"/>
<path d="M2490 6100 c0 -11 5 -20 10 -20 6 0 10 9 10 20 0 11 -4 20 -10 20 -5
0 -10 -9 -10 -20z"/>
<path d="M2830 6106 c0 -8 5 -18 10 -21 6 -3 10 3 10 14 0 12 -4 21 -10 21 -5
0 -10 -6 -10 -14z"/>
<path d="M3610 6260 l0 -220 1365 0 1365 0 0 220 0 220 -1365 0 -1365 0 0
-220z m128 104 c-2 -31 -7 -39 -23 -39 -26 0 -35 52 -11 61 9 3 16 13 16 22 0
11 3 13 11 5 6 -6 9 -28 7 -49z m101 18 c-13 -5 -11 -36 3 -50 9 -9 8 -12 -4
-12 -11 0 -17 12 -21 38 -5 45 0 56 18 39 7 -6 9 -13 4 -15z m2227 13 c9 -8
11 -15 5 -15 -15 0 -14 -33 1 -48 9 -9 8 -12 -5 -12 -17 0 -38 54 -29 78 5 16
10 15 28 -3z m-2388 -28 c2 -11 -3 -17 -15 -18 -16 -1 -17 -2 0 -6 23 -6 22
-23 -3 -23 -21 0 -38 40 -25 60 10 16 39 8 43 -13z m102 0 c0 -13 5 -28 12
-35 9 -9 6 -12 -16 -12 -24 0 -27 2 -16 15 7 8 10 24 7 35 -3 11 -1 20 4 20 5
0 9 -10 9 -23z m121 -15 c5 -26 3 -32 -10 -32 -12 0 -16 9 -16 35 0 43 17 41
26 -3z m61 8 c3 -17 1 -33 -4 -36 -4 -3 -8 9 -8 27 0 37 -16 29 -23 -11 -3
-18 -5 -15 -6 13 -1 30 2 37 18 37 13 0 20 -9 23 -30z m58 -14 c0 -29 -5 -46
-15 -49 -8 -4 -17 -2 -20 3 -4 6 2 10 12 11 11 0 13 3 5 6 -35 14 -36 73 -1
73 16 0 19 -7 19 -44z m102 -186 c2 -34 -1 -50 -9 -50 -8 0 -12 16 -10 50 3
65 14 65 19 0z m226 5 c-4 -28 -1 -46 6 -49 6 -2 3 -5 -7 -5 -14 -1 -17 7 -15
49 1 28 6 50 11 50 5 0 7 -20 5 -45z m-553 25 c-4 -6 -10 -8 -15 -5 -5 3 -11
1 -15 -5 -3 -6 1 -13 9 -16 9 -3 16 -14 16 -24 0 -23 -26 -44 -41 -34 -9 5 -5
10 11 16 22 8 22 9 5 28 -21 23 -13 50 15 50 12 0 18 -5 15 -10z m115 -40 c0
-8 -5 -22 -11 -30 -8 -12 -10 -9 -6 13 5 35 -9 36 -17 1 -10 -40 -19 -21 -11
25 6 38 7 39 26 23 10 -9 19 -23 19 -32z m114 8 c-8 -47 -21 -63 -41 -46 -17
14 -7 48 21 70 11 10 22 18 24 18 1 0 -1 -19 -4 -42z m226 31 c0 -5 -4 -8 -9
-4 -17 10 -21 -12 -6 -25 8 -7 15 -18 15 -25 0 -19 -27 -38 -41 -29 -9 5 -5
10 12 16 22 9 23 10 7 22 -18 13 -23 37 -11 49 10 11 33 8 33 -4z m281 -19
c-16 -11 -21 -44 -9 -52 10 -6 8 -8 -4 -8 -13 0 -18 8 -18 29 0 45 9 63 25 48
7 -7 10 -14 6 -17z m123 -12 c-8 -47 -21 -63 -41 -46 -20 16 -16 37 13 63 15
14 29 25 31 25 2 0 0 -19 -3 -42z m1426 30 c-1 -22 -27 -61 -33 -50 -4 5 0 15
8 22 15 13 10 35 -6 25 -5 -4 -9 -1 -9 4 0 6 9 11 20 11 11 0 20 -6 20 -12z
m54 3 c3 -4 -4 -26 -15 -47 -15 -29 -20 -32 -16 -14 2 14 8 34 12 44 6 14 5
17 -3 12 -7 -4 -12 -2 -12 3 0 13 27 15 34 2z m-2454 -46 c0 -19 -5 -35 -11
-35 -7 0 -9 10 -5 25 4 14 2 25 -4 25 -5 0 -10 -9 -10 -19 0 -11 -4 -23 -10
-26 -11 -7 -13 9 -4 43 4 13 14 22 25 22 15 0 19 -7 19 -35z m55 24 c10 -16
-3 -56 -20 -63 -20 -7 -29 16 -21 49 7 25 30 34 41 14z m115 1 c0 -5 -6 -9
-12 -7 -7 1 -14 -8 -16 -20 -2 -13 2 -23 8 -23 6 0 8 -5 4 -11 -4 -7 -11 -6
-22 5 -13 12 -13 20 -4 41 11 24 42 35 42 15z m118 -13 c2 -12 -3 -17 -17 -17
-12 0 -21 -4 -21 -10 0 -5 8 -10 17 -10 12 0 14 -3 6 -11 -24 -24 -42 15 -27
56 8 20 38 15 42 -8z m97 -7 l13 35 1 -32 c1 -22 -5 -36 -18 -43 -26 -14 -35
1 -24 43 l8 32 3 -35 4 -35 13 35z m125 26 c0 -2 3 -11 6 -20 4 -12 0 -16 -15
-16 -12 0 -21 -4 -21 -10 0 -5 7 -10 16 -10 8 0 12 -4 9 -10 -18 -29 -47 12
-34 48 7 18 39 33 39 18z m118 -19 c2 -12 -3 -17 -17 -17 -12 0 -21 -4 -21
-10 0 -5 7 -10 16 -10 8 0 13 -4 9 -10 -10 -16 -35 1 -35 24 0 41 41 60 48 23z
m116 7 c4 -11 -1 -18 -14 -21 -24 -6 -27 -23 -3 -23 13 0 14 -3 5 -12 -9 -9
-16 -8 -29 5 -14 13 -15 21 -5 42 13 28 37 33 46 9z m56 6 c0 -5 -6 -9 -12 -7
-7 1 -14 -8 -16 -20 -2 -13 2 -23 8 -23 6 0 8 -5 4 -11 -4 -7 -11 -6 -22 5
-13 12 -13 20 -4 41 11 24 42 35 42 15z m114 -6 c4 -11 -1 -18 -14 -21 -24 -6
-27 -23 -3 -23 13 0 14 -3 5 -12 -9 -9 -16 -9 -27 3 -12 12 -14 22 -6 42 12
30 36 36 45 11z"/>
<path d="M3703 6364 c-3 -8 -1 -20 6 -27 8 -8 11 -4 11 16 0 30 -7 35 -17 11z"/>
<path d="M3990 6361 c0 -12 5 -21 10 -21 6 0 10 6 10 14 0 8 -4 18 -10 21 -5
3 -10 -3 -10 -14z"/>
<path d="M3990 6139 c0 -11 5 -17 10 -14 6 3 10 13 10 21 0 8 -4 14 -10 14 -5
0 -10 -9 -10 -21z"/>
<path d="M4620 6139 c0 -11 5 -17 10 -14 6 3 10 13 10 21 0 8 -4 14 -10 14 -5
0 -10 -9 -10 -21z"/>
<path d="M3705 6147 c-4 -10 -5 -21 -1 -24 10 -10 18 4 13 24 -4 17 -4 17 -12
0z"/>
<path d="M6430 6130 l0 -350 28 0 28 0 0 287 c-1 221 2 287 12 290 9 4 12 -29
12 -141 l0 -146 95 0 c57 0 95 -4 95 -10 0 -5 -13 -10 -30 -10 l-30 0 0 -65 0
-65 65 0 c38 0 65 -4 65 -10 0 -7 -27 -10 -72 -8 l-73 3 -3 73 -3 72 -54 0
-55 0 0 -176 c0 -155 2 -178 18 -192 9 -10 13 -14 8 -9 -18 13 -26 7 -26 -18
0 -18 5 -25 19 -25 11 0 22 6 24 13 4 10 6 10 6 0 1 -8 15 -13 34 -13 17 0 50
-3 72 -7 39 -7 40 -7 10 -13 -29 -5 -30 -7 -33 -68 l-3 -62 66 0 c37 0 65 -4
65 -10 0 -6 -32 -10 -75 -10 l-75 0 0 70 0 70 -61 -1 c-38 -1 -56 -5 -47 -10
9 -6 9 -9 1 -9 -15 0 -43 40 -42 60 0 10 3 9 8 -5 5 -11 7 12 6 55 -2 73 -3
75 -29 78 -25 3 -26 1 -26 -42 0 -38 3 -45 23 -49 l22 -4 -23 -2 -22 -1 2
-1777 3 -1778 724 -3 c718 -3 725 -3 707 17 -11 12 -16 30 -13 48 l4 28 2 -31
c1 -35 23 -60 42 -48 8 4 9 3 5 -4 -5 -9 29 -12 129 -12 88 0 134 4 130 10 -3
5 -2 10 4 10 5 0 12 -4 16 -9 3 -6 171 -10 400 -11 l395 -1 0 2186 0 2185
-1275 0 -1275 0 0 -350z m160 278 c0 -6 -7 -8 -15 -4 -9 3 -15 0 -15 -8 0 -8
7 -17 16 -20 25 -9 14 -60 -13 -64 -15 -2 -23 2 -23 12 0 10 6 13 15 10 9 -4
15 0 15 9 0 8 -7 17 -15 21 -18 7 -20 53 -2 59 16 6 37 -3 37 -15z m140 -60
c0 -21 -4 -38 -10 -38 -5 0 -11 17 -11 38 l-2 37 -6 -33 c-8 -44 -25 -39 -29
10 -6 62 3 75 33 46 18 -16 25 -34 25 -60z m138 25 c-3 -54 -5 -58 -28 -58
-22 0 -25 5 -28 38 -3 32 0 39 17 44 12 3 21 12 21 19 0 8 5 14 10 14 7 0 10
-22 8 -57z m112 12 c0 -30 5 -47 16 -53 12 -7 13 -11 4 -17 -19 -12 -37 16
-43 68 -3 36 -1 47 9 47 10 0 14 -13 14 -45z m160 -15 c0 -57 -1 -60 -24 -60
-16 0 -27 7 -31 20 -7 21 -45 28 -45 9 0 -6 7 -9 15 -5 9 3 15 0 15 -9 0 -23
-38 -18 -51 6 -23 44 26 94 50 52 9 -17 10 -17 16 0 4 9 13 17 21 17 8 0 14 7
14 15 0 8 5 15 10 15 6 0 10 -27 10 -60z m310 34 c0 -23 2 -25 16 -13 15 12
16 11 10 -8 -4 -12 -2 -32 4 -43 15 -28 2 -40 -16 -16 -12 17 -14 18 -14 3 0
-9 -4 -17 -10 -17 -6 0 -10 27 -10 60 0 33 4 60 10 60 6 0 10 -12 10 -26z
m-182 -1 c12 -12 13 -18 4 -21 -16 -5 -16 -49 1 -55 6 -2 9 -8 5 -12 -13 -14
-38 4 -38 28 0 13 -5 28 -11 34 -8 8 -8 15 2 27 18 19 17 19 37 -1z m-758 -14
c0 -24 -23 -21 -28 4 -2 10 3 17 12 17 10 0 16 -9 16 -21z m150 -4 c0 -9 -6
-12 -15 -9 -11 5 -15 -1 -15 -21 0 -21 4 -26 16 -21 10 4 14 1 12 -6 -3 -7
-13 -13 -24 -13 -20 0 -31 41 -20 71 7 19 46 18 46 -1z m128 3 c18 -18 14 -38
-8 -38 -11 0 -20 -5 -20 -11 0 -6 9 -9 20 -6 23 6 27 -11 5 -19 -21 -8 -45 14
-45 40 0 21 17 46 30 46 3 0 11 -5 18 -12z m113 -25 c2 -34 2 -35 6 -8 8 51
23 53 23 3 0 -41 -2 -45 -22 -44 -20 1 -23 7 -26 44 -2 25 1 42 7 42 6 0 12
-17 12 -37z m443 21 c3 -9 6 -28 6 -44 0 -25 -3 -29 -27 -27 -38 3 -45 43 -11
56 l23 10 -23 0 c-13 1 -20 5 -17 11 10 16 42 12 49 -6z m66 6 c0 -5 -8 -10
-17 -10 -17 -1 -17 -1 0 -14 9 -7 17 -21 17 -30 0 -21 -28 -32 -43 -17 -8 8
-7 11 6 11 22 0 22 9 0 25 -21 16 -10 45 17 45 11 0 20 -4 20 -10z m135 0 c3
-5 -2 -10 -12 -10 -17 -1 -17 -1 0 -15 10 -7 17 -22 15 -32 -4 -23 -48 -31
-48 -9 0 10 6 13 18 10 16 -5 16 -5 0 9 -18 14 -23 38 -11 50 10 10 31 8 38
-3z m55 -65 c0 -8 -4 -15 -10 -15 -5 0 -10 7 -10 15 0 8 5 15 10 15 6 0 10 -7
10 -15z m-813 -207 c8 -14 14 -108 7 -108 -2 0 -10 12 -16 28 -11 26 -12 26
-15 5 -8 -44 -23 -22 -23 32 0 48 3 55 19 55 11 0 23 -6 28 -12z m341 -15 c12
-12 13 -18 4 -21 -14 -4 -16 -42 -2 -42 6 0 10 -4 10 -10 0 -5 -9 -10 -20 -10
-15 0 -20 7 -20 29 0 16 -5 31 -12 33 -9 3 -8 9 2 21 19 20 18 20 38 0z m-260
-30 c3 -18 -2 -23 -18 -23 -12 0 -19 -4 -15 -10 3 -5 12 -7 20 -3 8 3 15 1 15
-5 0 -16 -31 -23 -46 -11 -15 12 -19 61 -7 73 15 15 48 1 51 -21z m68 0 c7
-28 -7 -60 -25 -55 -6 1 -11 -5 -11 -13 0 -8 -4 -15 -10 -15 -5 0 -10 25 -10
55 0 52 1 55 25 55 18 0 26 -7 31 -27z m68 11 c10 -27 7 -34 -16 -35 -22 0
-22 -1 2 -10 23 -9 23 -11 7 -20 -13 -8 -22 -7 -33 1 -14 13 -19 61 -7 73 12
13 41 7 47 -9z m66 -23 c0 -30 -4 -40 -20 -44 -38 -10 -47 42 -10 56 12 4 11
6 -2 6 -28 1 -21 21 7 21 22 0 25 -4 25 -39z m135 29 c3 -5 -2 -10 -11 -10
-16 0 -16 -1 2 -14 15 -12 17 -18 8 -33 -13 -21 -35 -24 -42 -5 -2 7 2 10 12
6 9 -3 16 -2 16 4 0 5 -7 12 -15 16 -23 8 -19 46 4 46 11 0 23 -4 26 -10z m55
-5 c0 -8 -4 -15 -10 -15 -5 0 -10 7 -10 15 0 8 5 15 10 15 6 0 10 -7 10 -15z
m0 -50 c0 -8 -4 -15 -10 -15 -5 0 -10 7 -10 15 0 8 5 15 10 15 6 0 10 -7 10
-15z m-392 -86 c5 -39 -14 -79 -38 -79 -16 0 -20 7 -20 36 0 19 5 44 11 55 14
27 43 20 47 -12z m397 7 c12 -12 12 -15 0 -20 -18 -7 -20 -52 -2 -60 6 -3 3
-5 -8 -3 -19 2 -23 23 -16 90 1 11 11 9 26 -7z m-191 -18 c5 -10 7 -10 12 0 3
6 19 12 36 12 27 0 30 -3 24 -22 -3 -13 -6 -31 -6 -40 0 -10 -4 -18 -8 -18 -5
0 -8 12 -7 28 1 15 0 18 -2 7 -9 -41 -25 -41 -19 0 l5 40 -13 -40 c-14 -39
-14 -39 -16 -10 -1 17 -4 24 -7 18 -2 -7 -14 -13 -24 -13 -11 0 -17 -5 -14
-10 4 -6 10 -8 14 -6 4 3 13 -5 20 -17 11 -18 11 -20 0 -9 -7 6 -21 12 -31 12
-10 0 -20 10 -24 25 -7 28 -25 32 -43 11 -10 -12 -15 -11 -35 7 -27 27 -24 37
4 12 16 -14 22 -15 35 -5 8 7 21 10 29 7 8 -3 17 1 20 9 7 17 42 19 50 2z
m136 -12 c0 -37 -10 -56 -31 -56 -11 0 -19 -7 -19 -17 0 -9 -3 -14 -6 -10 -3
3 -3 29 1 56 6 45 10 51 31 51 19 0 24 -5 24 -24z m100 -3 l1 -28 15 28 c25
46 27 23 3 -32 -12 -29 -28 -51 -36 -51 -13 0 -13 3 -3 15 8 9 11 30 7 55 -3
22 -1 40 4 40 5 0 9 -12 9 -27z m-390 -32 c0 -12 -20 -25 -27 -18 -7 7 6 27
18 27 5 0 9 -4 9 -9z m-228 -87 c-12 -8 -23 -27 -23 -42 -2 -25 -2 -25 -6 -4
-5 24 21 62 41 62 6 0 0 -7 -12 -16z m426 -76 c7 -7 12 -16 12 -22 0 -5 -6 -2
-13 9 -10 12 -22 16 -40 13 -15 -3 -24 -1 -21 3 8 13 48 11 62 -3z m-383 -39
c9 -14 43 -11 52 6 6 10 10 -5 11 -43 2 -68 -9 -92 -35 -76 -12 8 -18 24 -19
52 -1 42 -17 72 -39 72 -7 0 -18 7 -25 15 -10 12 -7 12 19 -1 17 -8 33 -19 36
-25z m269 -81 c-3 -5 -12 -7 -20 -4 -8 3 -14 1 -14 -4 0 -5 10 -10 23 -13 19
-3 20 -4 5 -11 -10 -5 -25 -6 -33 -2 -21 8 -19 62 3 84 16 17 18 16 29 -11 7
-16 10 -33 7 -39z m-142 38 c11 -16 10 -76 -2 -76 -5 0 -10 14 -10 30 0 17 -4
30 -10 30 -5 0 -10 -13 -10 -30 0 -16 -4 -30 -10 -30 -10 0 -14 72 -5 82 9 9
40 5 47 -6z m68 -2 c0 -8 -5 -12 -10 -9 -19 12 -24 -27 -5 -41 23 -17 11 -33
-13 -18 -21 14 -27 50 -12 70 16 19 40 18 40 -2z m137 -2 c8 -5 3 -11 -16 -19
-25 -9 -28 -8 -24 8 6 20 20 24 40 11z m-9 -54 c-6 -18 -28 -21 -28 -4 0 9 7
16 16 16 9 0 14 -5 12 -12z m-190 -90 c3 -38 -26 -86 -46 -74 -29 18 1 123 31
113 7 -2 13 -19 15 -39z m326 13 c24 -26 17 -73 -11 -86 -12 -5 -24 -16 -27
-25 -2 -8 -4 -5 -5 8 0 13 -5 20 -11 17 -6 -3 -10 4 -11 17 l0 23 -9 -22 c-14
-35 -23 -27 -17 15 l6 37 -14 -40 c-11 -34 -14 -36 -14 -14 -1 22 -5 26 -26
21 -31 -5 -32 -19 -2 -25 19 -3 20 -4 4 -11 -19 -9 -47 8 -47 29 0 7 9 23 20
36 19 23 21 23 34 7 16 -22 26 -23 26 -3 0 8 9 15 19 15 11 0 23 5 26 10 10
16 41 11 59 -9z m86 -15 c0 -3 -7 -6 -15 -6 -9 0 -15 -9 -15 -25 0 -14 5 -25
10 -25 6 0 10 -4 10 -10 0 -5 -7 -10 -15 -10 -8 0 -16 5 -16 10 -10 74 2 110
27 85 8 -7 14 -16 14 -19z m32 -24 c-3 -10 -1 -13 6 -8 7 4 12 16 12 27 0 11
7 19 16 19 19 0 74 -37 74 -50 0 -5 -12 2 -26 15 -15 14 -30 25 -34 25 -3 0
-14 -17 -24 -37 -13 -26 -14 -39 -6 -41 6 -2 -1 -10 -16 -18 -27 -15 -50 -10
-25 5 7 5 12 24 11 47 -3 54 -1 61 9 45 5 -8 7 -21 3 -29z m-400 -44 c-6 -6
-15 -9 -18 -5 -4 3 -4 14 0 23 5 13 9 15 18 6 9 -9 9 -15 0 -24z m506 -69 c-3
-20 -5 -19 -9 9 -3 20 -2 29 4 23 5 -5 7 -19 5 -32z m-29 -36 c11 3 19 1 15
-4 -13 -21 -64 -1 -64 25 0 5 6 2 14 -9 8 -12 20 -16 35 -12z m222 -53 c7 0
10 -2 7 -5 -11 -12 -38 9 -37 29 0 21 0 21 9 -1 5 -13 15 -23 21 -23z m78 -29
l-2 -26 -4 25 c-3 14 -10 32 -16 40 -11 13 -10 13 6 1 9 -7 16 -25 16 -40z
m-140 -16 c0 -14 -2 -16 -6 -5 -3 8 -13 24 -22 34 -15 18 -15 18 7 5 12 -8 22
-23 21 -34z m124 -27 c-6 -10 -35 -10 -51 0 -8 5 1 8 22 8 19 -1 32 -4 29 -8z
m84 -60 c-2 -8 14 -21 37 -31 28 -12 32 -16 14 -12 -25 5 -28 2 -29 -22 l-2
-28 -4 28 c-3 15 -13 33 -23 39 -13 9 -15 14 -6 24 14 17 19 17 13 2z m287
-67 c4 -5 -3 -7 -14 -4 -11 3 -28 -1 -38 -8 -15 -13 -16 -12 -3 4 14 18 46 23
55 8z m-306 -42 c11 0 12 -2 4 -6 -15 -6 -42 14 -42 31 0 6 5 3 11 -6 5 -10
18 -18 27 -19z m596 -27 c3 -5 -8 -6 -25 -4 -16 2 -29 6 -29 8 0 8 49 4 54 -4z
m56 -73 c0 -5 -11 2 -25 15 -14 13 -25 26 -25 30 0 3 11 -4 25 -16 14 -12 25
-25 25 -29z m-96 -19 c20 0 20 -1 -2 -16 -12 -8 -23 -27 -23 -42 -2 -25 -2
-25 -6 -3 -3 13 0 28 6 34 8 8 6 17 -6 31 -10 12 -11 15 -3 9 8 -7 23 -13 34
-13z m-149 -70 c3 -5 16 -11 28 -11 14 -1 16 -3 6 -6 -8 -2 -28 3 -45 12 -18
9 -23 15 -12 15 9 0 20 -4 23 -10z m205 -25 c-13 -16 -65 -21 -74 -7 -2 4 10
6 29 4 18 -2 36 1 39 7 4 6 10 11 13 11 3 0 0 -7 -7 -15z m-268 -267 c-5 -7
-12 -24 -15 -38 l-4 -25 -2 26 c0 14 4 30 11 37 16 16 23 15 10 0z m-42 -63
c7 -9 10 -18 6 -22 -3 -3 -6 -1 -6 6 0 6 -10 16 -22 21 -16 6 -18 9 -7 9 9 1
22 -6 29 -14z m-37 -80 c12 -8 17 -15 13 -15 -20 0 -46 35 -45 59 l2 26 4 -27
c2 -15 14 -35 26 -43z m106 38 c11 3 19 1 15 -4 -13 -21 -64 -1 -64 25 0 5 6
2 14 -9 8 -12 20 -16 35 -12z m-98 -231 c-13 -2 -27 0 -32 5 -6 6 3 7 23 4 28
-4 29 -6 9 -9z m-32 -121 l-2 -26 -4 25 c-3 14 -10 32 -16 40 -11 13 -10 13 6
1 9 -7 16 -25 16 -40z m136 -1 c-9 -41 -17 -33 -9 9 4 17 9 30 11 27 3 -2 2
-19 -2 -36z m-78 -17 c-3 -10 -5 -2 -5 17 0 19 2 27 5 18 2 -10 2 -26 0 -35z
m-88 -20 c11 3 19 1 15 -4 -13 -21 -64 -1 -64 25 0 5 6 2 14 -9 8 -12 20 -16
35 -12z m131 -100 c-14 -3 -29 -9 -34 -14 -6 -5 -17 -9 -25 -9 -10 0 -6 6 9
14 14 8 36 14 50 14 l25 -1 -25 -4z m112 -199 c-12 -8 -23 -27 -23 -42 -2 -25
-2 -25 -6 -4 -5 24 21 62 41 62 6 0 0 -7 -12 -16z m-219 -115 c-5 -5 -7 7 -4
29 5 34 6 35 9 8 2 -16 0 -32 -5 -37z m197 29 c0 -5 -11 -1 -25 8 -14 9 -25
18 -25 20 0 2 11 -2 25 -8 14 -6 25 -15 25 -20z m-487 -19 c-6 -6 -19 -9 -29
-6 -16 4 -15 5 4 6 12 0 22 6 22 13 0 6 3 8 7 5 4 -4 2 -12 -4 -18z m547 -34
c-17 -20 -44 -19 -61 3 -11 14 -11 15 1 5 19 -18 49 -16 57 2 3 9 8 14 11 11
3 -3 -1 -12 -8 -21z m-295 5 c15 -6 11 -7 -17 -7 -23 1 -33 4 -25 9 14 9 16 9
42 -2z m-447 -100 c10 0 22 3 28 8 5 4 1 -1 -10 -11 -15 -14 -22 -15 -33 -5
-11 9 -19 9 -36 -1 -22 -12 -22 -12 -2 6 12 10 19 29 18 43 -2 19 0 17 8 -7 6
-21 16 -33 27 -33z m147 -6 c-16 -13 -37 -24 -45 -24 -18 0 -40 19 -40 35 0 5
5 2 11 -7 14 -25 41 -22 70 5 13 13 26 21 29 19 3 -2 -8 -15 -25 -28z m-243
-26 c-16 -20 -18 -53 -5 -70 10 -12 10 -15 -2 -15 -8 0 -20 16 -26 34 -13 40
-32 51 -57 32 -15 -13 -16 -12 -3 4 17 21 35 22 51 2 11 -14 14 -13 27 5 8 11
17 20 20 20 3 0 1 -6 -5 -12z m93 -47 c-6 -11 -67 -43 -72 -38 -1 2 14 13 35
24 44 25 45 25 37 14z m-191 -130 c4 -5 -3 -7 -14 -4 -14 4 -31 -3 -48 -18
l-27 -24 24 28 c24 27 55 35 65 18z m-10 -92 c-15 -16 -32 -29 -37 -29 -5 0 5
12 22 26 19 16 32 36 32 52 2 25 2 26 6 3 3 -16 -4 -32 -23 -52z m-154 -241
c0 -9 7 -21 16 -29 13 -11 19 -10 37 1 20 12 21 12 8 -3 -7 -10 -18 -17 -24
-17 -17 0 -47 32 -47 49 0 9 -9 22 -20 29 -11 7 -20 16 -20 22 0 5 11 -1 25
-14 14 -13 25 -30 25 -38z m-8 -170 c-5 -7 -12 -24 -15 -38 l-4 -25 -2 26 c0
14 4 30 11 37 16 16 23 15 10 0z m48 -73 c-14 -16 -46 -20 -54 -6 -3 4 6 6 19
3 17 -3 27 1 31 12 4 9 9 15 12 12 3 -3 -1 -12 -8 -21z m111 -98 c-9 -9 -11
-8 -6 4 3 9 -1 22 -10 29 -8 7 -15 17 -15 23 0 5 10 -2 21 -17 17 -21 19 -30
10 -39z m283 -146 c4 -5 -3 -7 -14 -4 -11 3 -28 -1 -38 -8 -15 -13 -16 -12 -3
4 14 18 46 23 55 8z m356 -226 c7 -8 21 -15 31 -15 10 0 20 -4 23 -8 3 -5 -8
-6 -25 -4 -16 2 -29 8 -29 13 0 6 -10 14 -22 19 -16 6 -18 9 -7 9 9 1 22 -6
29 -14z"/>
<path d="M6830 6355 c0 -15 4 -24 10 -20 6 3 10 12 10 20 0 8 -4 17 -10 20 -6
4 -10 -5 -10 -20z"/>
<path d="M7103 6364 c-3 -8 -1 -20 6 -27 8 -8 11 -4 11 16 0 30 -7 35 -17 11z"/>
<path d="M6900 6060 c0 -11 5 -20 10 -20 6 0 10 9 10 20 0 11 -4 20 -10 20 -5
0 -10 -9 -10 -20z"/>
<path d="M7176 5925 c-9 -24 -7 -45 3 -45 5 0 13 9 16 21 8 26 -9 48 -19 24z"/>
<path d="M6760 5631 c0 -17 5 -33 10 -36 6 -4 10 8 10 29 0 20 -4 36 -10 36
-5 0 -10 -13 -10 -29z"/>
<path d="M6839 5518 c-6 -11 -4 -76 1 -73 5 3 8 21 7 40 -1 31 -4 41 -8 33z"/>
<path d="M7144 5479 c-1 -26 2 -36 7 -28 5 8 9 24 9 36 0 12 6 24 13 26 6 3 3
6 -8 6 -17 1 -21 -6 -21 -40z"/>
<path d="M7177 5483 c-11 -10 -8 -43 3 -43 6 0 10 4 10 9 0 5 3 16 6 25 6 16
-7 22 -19 9z"/>
<path d="M810 6370 c-7 -13 -7 -20 -1 -20 6 0 15 9 21 20 7 13 7 20 1 20 -6 0
-15 -9 -21 -20z"/>
<path d="M689 6348 c-23 -56 -8 -188 22 -188 4 0 3 13 -2 30 -12 32 -8 144 5
173 5 10 4 17 -2 17 -5 0 -15 -14 -23 -32z"/>
<path d="M906 6353 c11 -35 11 -129 1 -165 -12 -43 8 -33 21 11 16 52 15 104
-2 146 -18 42 -32 47 -20 8z"/>
<path d="M1330 6370 c0 -6 7 -13 15 -16 11 -5 15 -23 15 -73 0 -69 10 -91 42
-91 24 0 23 26 -2 33 -18 5 -20 14 -20 81 0 74 -1 76 -25 76 -14 0 -25 -5 -25
-10z"/>
<path d="M776 6308 c-31 -43 -9 -118 34 -118 24 0 40 29 40 74 0 59 -45 86
-74 44z m49 -48 c0 -24 -5 -36 -16 -38 -19 -3 -30 27 -22 58 9 35 38 20 38
-20z"/>
<path d="M1045 6320 c-3 -5 -12 -7 -20 -3 -12 4 -15 -7 -15 -61 0 -37 4 -66
10 -66 6 0 10 18 10 39 0 52 8 71 31 71 10 0 19 7 19 15 0 17 -25 21 -35 5z"/>
<path d="M1127 6318 c-23 -18 -30 -68 -14 -98 14 -28 67 -36 75 -11 3 10 0 12
-12 8 -21 -8 -46 2 -46 19 0 9 12 14 35 14 40 0 46 19 19 58 -17 25 -33 28
-57 10z m43 -33 c0 -8 -9 -15 -20 -15 -20 0 -26 11 -13 23 12 13 33 7 33 -8z"/>
<path d="M1231 6312 c-26 -49 -2 -130 34 -116 9 4 15 0 15 -10 0 -11 -9 -16
-26 -16 -30 0 -28 -24 2 -28 39 -5 49 13 52 98 3 62 1 80 -9 80 -8 0 -24 3
-36 6 -15 4 -24 0 -32 -14z m44 -52 c0 -18 -5 -35 -12 -37 -15 -5 -26 31 -18
58 10 31 30 17 30 -21z"/>
<path d="M1473 6323 c-21 -8 -14 -24 9 -21 11 2 23 -3 25 -9 3 -8 -4 -13 -15
-13 -27 0 -44 -24 -40 -57 3 -26 6 -28 43 -27 l40 0 0 58 c-1 67 -19 87 -62
69z m37 -82 c0 -24 -18 -37 -32 -23 -8 8 -7 16 2 27 17 21 30 19 30 -4z"/>
<path d="M2250 6095 c0 -8 7 -15 16 -15 14 0 14 3 4 15 -7 8 -14 15 -16 15 -2
0 -4 -7 -4 -15z"/>
<path d="M20 4880 l0 -1170 514 0 515 0 4 28 4 27 2 -27 1 -27 149 0 c91 -1
152 3 156 9 3 5 12 10 18 10 7 0 6 -4 -3 -10 -11 -7 0 -10 38 -10 40 0 51 3
46 13 -6 10 -4 10 7 0 8 -9 46 -13 109 -13 63 0 101 4 109 13 11 10 13 10 7 0
-5 -9 0 -13 14 -13 14 0 19 4 14 13 -6 10 -4 10 7 0 9 -10 69 -13 226 -13
l213 0 0 1170 -1 1170 -1074 0 -1075 0 0 -1170z m970 1063 c0 9 5 17 10 17 6
0 10 -20 10 -45 0 -48 -13 -60 -25 -22 l-7 22 -7 -25 c-7 -25 -19 -18 -16 10
1 8 3 26 3 39 2 24 2 24 17 5 13 -17 14 -17 15 -1z m60 -38 c0 -13 4 -26 9
-29 13 -8 23 23 15 48 -6 18 -5 19 8 9 8 -7 18 -10 21 -6 15 15 6 -16 -12 -38
-10 -13 -21 -31 -24 -39 -4 -12 -6 -11 -6 3 -1 10 -9 17 -21 17 -16 0 -18 4
-11 23 4 12 6 28 3 36 -3 8 0 11 7 7 6 -4 11 -18 11 -31z m184 18 c3 -6 -2
-14 -10 -17 -10 -4 -12 -2 -8 6 4 7 3 8 -4 4 -7 -4 -9 -19 -5 -38 4 -22 3 -29
-5 -24 -7 4 -12 20 -12 36 0 16 -4 32 -10 35 -5 3 -10 -1 -10 -9 0 -9 -7 -16
-15 -16 -21 0 -19 -18 3 -22 12 -2 13 -6 5 -11 -7 -4 -20 1 -32 14 -18 19 -18
22 -4 39 18 21 100 23 107 3z m205 -107 c7 -8 20 -12 29 -9 25 6 55 -30 49
-59 -4 -22 -4 -21 -6 3 -1 31 -24 54 -45 46 -8 -3 -20 1 -26 9 -16 19 -29 18
-54 -3 -21 -18 -21 -18 -2 5 22 25 39 28 55 8z m51 -103 c11 3 18 1 14 -4 -10
-16 -41 -9 -60 14 l-19 22 22 -19 c13 -11 31 -16 43 -13z m575 17 c3 -6 16 -8
29 -4 15 3 27 -1 37 -13 13 -16 12 -17 -3 -4 -10 7 -25 10 -34 7 -9 -4 -23 -1
-30 5 -8 6 -23 9 -34 6 -11 -3 -18 -1 -14 4 7 12 41 11 49 -1z m-232 -62 l42
-1 -38 -4 c-38 -4 -67 9 -67 31 0 6 5 3 11 -6 7 -12 24 -19 52 -20z m-809
-117 c10 -11 16 -29 13 -43 -4 -21 -4 -21 -6 4 0 15 -11 34 -23 42 -12 9 -18
16 -12 16 6 0 19 -9 28 -19z m-9 -91 c-22 -25 -48 -26 -66 -2 -11 14 -11 15 1
5 19 -17 45 -16 60 2 7 8 15 15 18 15 3 0 -3 -9 -13 -20z m-53 -51 c21 -22 38
-47 38 -55 0 -48 -49 -72 -76 -36 -12 16 -13 15 -14 -5 0 -12 -12 -30 -26 -40
-23 -17 -25 -22 -15 -42 15 -27 6 -58 -19 -71 -36 -19 -75 41 -51 79 5 7 4 26
-3 43 -10 28 -9 32 31 66 22 20 43 44 46 52 4 10 6 9 6 -5 0 -12 -15 -31 -39
-48 -42 -29 -47 -45 -29 -78 7 -15 7 -24 -1 -35 -18 -20 -4 -64 20 -64 26 0
44 34 30 59 -13 25 -4 48 21 54 14 4 19 14 19 41 0 39 15 48 25 16 4 -11 11
-17 17 -14 7 4 8 2 4 -4 -5 -8 0 -12 13 -12 22 0 36 30 26 60 -3 11 -12 20
-20 20 -8 0 -17 9 -20 21 -4 11 -16 24 -28 29 -12 5 -16 9 -8 9 8 1 32 -17 53
-40z m192 16 c-7 -16 -49 -21 -58 -6 -3 4 5 6 18 4 13 -3 27 0 30 6 10 16 16
13 10 -4z m-394 -184 c16 -31 12 -48 -19 -83 -25 -27 -33 -31 -48 -22 -28 17
-29 71 -2 100 27 29 55 31 69 5z m16 -156 c23 -35 6 -75 -31 -75 -37 0 -54 40
-31 75 9 14 23 25 31 25 8 0 22 -11 31 -25z m-217 -23 c12 -22 11 -111 -1
-134 -5 -10 -17 -18 -27 -18 -23 0 -101 72 -101 94 0 29 20 56 40 56 10 0 22
5 25 10 10 17 54 11 64 -8z m-235 -42 c14 -5 28 -20 32 -34 7 -29 -11 -66 -32
-66 -10 0 -13 -7 -8 -24 9 -37 -12 -66 -46 -66 -39 0 -61 34 -63 96 -2 39 2
50 19 59 11 5 28 18 38 28 20 20 26 20 60 7z m168 -197 c14 -13 21 -14 30 -5
7 7 18 12 25 12 20 0 45 -46 38 -69 -7 -24 -59 -81 -73 -81 -6 0 -27 15 -46
34 -28 26 -36 41 -36 69 0 24 6 39 18 46 23 14 23 14 44 -6z m304 -192 c24
-48 -19 -100 -55 -67 -25 23 -27 53 -4 78 21 24 44 20 59 -11z m-111 -26 c29
-30 32 -61 9 -93 -21 -31 -41 -28 -64 11 -24 39 -25 65 -3 89 21 24 27 23 58
-7z m114 -132 c7 -14 12 -15 24 -4 12 9 21 10 36 1 17 -8 21 -19 19 -53 l-1
-42 -4 38 c-3 24 -8 35 -15 31 -6 -4 -8 -2 -4 4 12 19 -15 24 -35 6 -12 -11
-19 -13 -19 -5 0 7 -5 9 -12 5 -6 -4 -8 -3 -4 4 8 14 -8 24 -28 16 -10 -4 -16
-18 -16 -36 0 -19 4 -27 12 -22 6 4 8 3 4 -4 -12 -20 17 -26 31 -6 12 16 15
17 23 4 6 -8 8 -25 5 -37 -7 -31 32 -103 56 -103 24 0 35 40 19 70 -6 12 -10
24 -7 26 2 3 10 -9 17 -26 17 -41 0 -83 -32 -78 -30 4 -69 75 -62 111 5 26 -8
38 -21 17 -16 -26 -55 9 -55 49 0 47 48 71 69 34z m203 -190 c22 -20 23 -56 2
-77 -19 -19 -28 -21 -17 -3 4 6 7 23 6 37 l-2 25 8 -25 9 -25 1 27 c1 18 -6
31 -19 38 -19 10 -24 6 -21 -13 1 -5 -3 -6 -9 -2 -5 3 -10 -3 -10 -14 0 -11
-9 -25 -20 -31 -13 -7 -20 -21 -20 -39 0 -34 29 -64 50 -51 8 5 18 6 22 4 4
-3 9 7 9 23 2 24 2 25 6 5 2 -12 15 -33 29 -47 49 -49 21 -155 -41 -155 -48 0
-82 80 -55 130 7 13 5 24 -10 43 -26 32 -25 69 0 92 11 10 20 26 20 36 0 10 8
23 18 28 23 14 23 14 44 -6z m-837 -168 c50 -49 23 -155 -40 -155 -30 0 -65
44 -65 82 0 37 25 85 47 91 31 8 33 7 58 -18z m217 -5 c27 -27 30 -36 25 -71
-12 -94 -102 -109 -126 -23 -12 42 5 95 36 113 27 15 32 14 65 -19z m213 5
c50 -49 23 -155 -40 -155 -30 0 -65 44 -65 82 0 37 25 85 47 91 31 8 33 7 58
-18z m198 14 c70 -32 54 -169 -19 -169 -63 0 -90 105 -39 155 28 29 26 28 58
14z m430 0 c70 -32 54 -169 -19 -169 -24 0 -64 31 -64 50 0 6 -7 10 -15 10
-16 0 -29 37 -23 66 3 18 15 25 63 42 17 5 31 10 32 11 1 1 13 -4 26 -10z
m232 -14 c19 -18 25 -35 25 -70 0 -110 -112 -116 -127 -6 -5 35 -2 44 25 71
37 36 46 37 77 5z m206 15 c14 0 39 -56 39 -88 0 -38 -35 -82 -65 -82 -63 0
-90 106 -40 156 15 15 32 23 41 20 9 -3 20 -6 25 -6z m211 -1 c31 -17 49 -70
37 -113 -24 -86 -114 -71 -126 23 -5 35 -2 44 25 71 34 34 36 34 64 19z m219
1 c14 0 39 -56 39 -88 0 -38 -35 -82 -65 -82 -63 0 -90 106 -40 156 15 15 32
23 41 20 9 -3 20 -6 25 -6z m-948 -191 c8 -21 17 -29 29 -25 10 2 16 0 12 -5
-10 -18 -35 -9 -44 17 -6 15 -14 22 -22 18 -7 -4 -8 -3 -4 4 5 8 -1 12 -14 12
-17 0 -20 -4 -15 -22 5 -17 4 -19 -4 -9 -7 11 -10 8 -14 -15 l-4 -29 -2 31
c-2 59 62 78 82 23z m107 -104 c10 0 15 -12 16 -35 2 -33 1 -33 -4 -5 l-5 30
-7 -30 -8 -30 -2 30 -2 30 -8 -30 -8 -30 -1 34 c-1 29 -3 32 -16 21 -8 -7 -15
-22 -16 -34 -1 -19 -2 -18 -8 4 -8 27 3 50 25 50 8 0 14 10 15 23 1 21 1 21 8
-3 4 -14 13 -25 21 -25z m-1168 3 c25 -29 20 -62 -9 -66 -21 -3 -23 1 -23 42
0 52 5 55 32 24z m269 -27 c3 -27 2 -40 -5 -38 -6 2 -14 22 -17 46 -3 27 -2
40 5 38 6 -2 14 -22 17 -46z m62 -33 c8 -5 5 -8 -8 -8 -17 0 -20 6 -18 42 2
57 6 61 10 13 3 -22 10 -43 16 -47z m137 49 c0 -18 6 -39 13 -46 10 -11 9 -13
-3 -9 -16 5 -33 88 -18 88 4 0 8 -15 8 -33z m67 17 c3 -8 1 -26 -5 -39 -8 -18
-8 -25 1 -29 7 -2 2 -5 -10 -5 -27 -1 -28 6 -8 33 19 25 19 36 0 36 -8 0 -15
5 -15 10 0 16 30 11 37 -6z m433 -46 c0 -21 -5 -28 -20 -28 -17 0 -20 7 -20
45 0 44 0 44 20 28 11 -10 20 -30 20 -45z m61 32 c11 0 22 7 25 15 4 8 10 15
14 15 15 0 16 -35 4 -85 -6 -27 -12 -40 -13 -29 0 12 -8 24 -16 28 -8 3 -15
13 -15 23 0 10 -9 24 -20 31 -11 7 -20 18 -20 25 0 6 5 4 11 -5 5 -10 19 -18
30 -18z m234 3 c-5 -14 -3 -14 11 -2 15 12 16 11 10 -9 -5 -14 -3 -29 4 -37 9
-11 9 -15 1 -15 -6 0 -11 5 -11 10 0 6 -5 10 -11 10 -5 0 -7 -4 -4 -10 3 -5 1
-10 -4 -10 -6 0 -11 20 -11 46 0 29 4 43 11 39 6 -4 8 -14 4 -22z m122 -1 c14
11 15 10 9 -10 -5 -14 -3 -29 4 -37 8 -9 8 -15 2 -15 -6 0 -13 6 -15 13 -4 9
-8 8 -16 -3 -7 -10 -6 -19 2 -30 10 -12 9 -13 -3 -4 -21 16 -52 25 -45 15 3
-5 2 -12 -3 -14 -4 -3 -7 17 -7 44 0 55 12 65 22 19 9 -49 23 -45 24 7 1 26 4
38 6 25 4 -20 7 -21 20 -10z m332 -37 c-2 -30 -2 -30 -6 -2 -2 15 -8 27 -13
27 -5 0 -11 -12 -13 -27 -2 -18 -5 -10 -6 19 -1 47 -1 47 19 31 13 -11 19 -28
19 -48z m110 0 c-2 -30 -2 -30 -6 -2 -2 15 -8 27 -13 27 -5 0 -11 -12 -13 -27
-2 -18 -5 -10 -6 19 -1 47 -1 47 19 31 13 -11 19 -28 19 -48z m-1764 35 c3 -5
-2 -10 -12 -10 -17 -1 -17 -1 0 -11 9 -5 17 -16 17 -23 0 -17 -27 -29 -35 -16
-4 6 2 10 12 10 17 1 17 1 -1 15 -11 8 -16 21 -13 30 7 17 23 20 32 5z m55 0
c0 -5 -5 -10 -11 -10 -6 0 -3 -7 6 -16 12 -12 13 -19 4 -30 -6 -8 -16 -11 -21
-8 -6 4 -6 9 1 14 9 5 8 10 -4 20 -12 10 -13 16 -4 26 13 16 29 18 29 4z m107
-31 l1 -34 -8 30 -8 30 -2 -30 -2 -30 -8 30 -8 30 -2 -30 c-2 -26 -3 -27 -7
-7 -6 33 3 51 24 48 13 -2 18 -12 20 -37z m210 0 l1 -34 -8 30 -8 30 -2 -30
-2 -30 -8 30 -8 30 -2 -30 c-2 -26 -3 -27 -7 -7 -6 33 3 51 24 48 13 -2 18
-12 20 -37z m209 15 c5 -18 1 -30 -14 -45 -12 -10 -24 -19 -27 -19 -11 0 -4
79 8 83 22 10 27 7 33 -19z m53 -17 c-2 -30 -2 -31 -6 -4 -2 15 -8 27 -13 27
-5 0 -11 -12 -13 -27 -4 -27 -4 -27 -6 4 -1 29 14 46 32 36 4 -2 6 -19 6 -36z
m61 4 c0 -26 -21 -43 -37 -30 -16 14 -17 41 -1 57 14 14 38 -2 38 -27z m98 4
c3 -27 -14 -49 -30 -39 -15 10 -8 44 10 45 16 1 16 2 -1 6 -9 2 -15 9 -11 14
11 18 29 3 32 -26z m59 -6 l1 -34 -8 30 -8 30 -2 -30 -2 -30 -8 30 -8 30 -2
-30 c-2 -26 -3 -27 -7 -7 -6 33 3 51 24 48 13 -2 18 -12 20 -37z m583 31 c0
-5 -5 -10 -11 -10 -6 0 -3 -7 6 -16 12 -12 13 -19 4 -30 -6 -8 -16 -11 -21 -8
-6 4 -6 9 1 14 9 5 8 10 -4 20 -12 10 -13 16 -4 26 13 16 29 18 29 4z m59 -33
c-2 -30 -2 -31 -6 -4 -2 15 -8 27 -13 27 -5 0 -11 -12 -13 -27 -4 -27 -4 -27
-6 4 -1 29 14 46 32 36 4 -2 6 -19 6 -36z m61 33 c0 -5 -4 -10 -10 -10 -5 0
-10 -9 -10 -19 0 -11 -4 -23 -10 -26 -6 -4 -10 6 -10 24 0 26 9 38 33 40 4 1
7 -3 7 -9z m151 -28 c5 -26 3 -32 -10 -32 -12 0 -16 10 -17 35 -1 44 18 41 27
-3z m167 5 c2 -18 -2 -29 -12 -33 -9 -3 -16 -13 -16 -21 0 -8 -4 -11 -10 -8
-14 9 -12 82 3 88 21 9 32 1 35 -26z m45 15 c-6 -4 -13 -18 -16 -32 -4 -22 -4
-21 -6 7 0 17 5 33 12 36 16 6 24 -2 10 -11z m62 8 c3 -5 -1 -10 -9 -10 -9 0
-16 -9 -16 -20 0 -11 7 -20 16 -20 8 0 13 -4 9 -10 -8 -12 -32 -2 -39 16 -12
30 24 69 39 44z"/>
<path d="M697 5232 c-22 -24 -22 -78 -1 -86 17 -7 64 35 64 58 0 46 -33 61
-63 28z"/>
<path d="M720 5080 c-16 -30 -3 -60 25 -60 15 0 26 7 30 20 8 24 -10 60 -30
60 -8 0 -19 -9 -25 -20z"/>
<path d="M505 5060 c-3 -5 -17 -10 -30 -10 -18 0 -26 -7 -31 -25 -7 -27 18
-75 38 -75 6 0 17 -8 24 -17 10 -14 17 -16 31 -7 21 13 29 110 11 131 -13 15
-34 17 -43 3z"/>
<path d="M268 5001 c-7 -10 -22 -20 -33 -22 -25 -5 -30 -34 -15 -87 9 -34 16
-42 41 -47 46 -10 59 19 34 77 -5 13 -2 15 15 11 23 -6 40 10 40 37 0 23 -13
36 -42 44 -20 4 -30 1 -40 -13z"/>
<path d="M453 4823 c-26 -10 -14 -63 21 -99 39 -40 56 -38 87 13 18 28 20 39
10 59 -12 28 -36 31 -50 7 -9 -17 -11 -16 -26 5 -17 23 -21 24 -42 15z"/>
<path d="M742 4638 c-28 -28 -3 -86 31 -72 19 7 26 34 16 62 -9 24 -29 28 -47
10z"/>
<path d="M632 4608 c-15 -15 -15 -40 -1 -72 15 -32 34 -39 54 -20 22 22 18 57
-8 82 -27 26 -29 26 -45 10z"/>
<path d="M1114 4096 c-9 -24 0 -59 16 -64 8 -3 12 -2 9 2 -4 4 -3 23 1 42 6
26 5 34 -6 34 -8 0 -17 -6 -20 -14z"/>
<path d="M1020 3800 c0 -11 5 -20 10 -20 6 0 10 9 10 20 0 11 -4 20 -10 20 -5
0 -10 -9 -10 -20z"/>
<path d="M1990 3800 c0 -19 3 -21 12 -12 9 9 9 15 0 24 -9 9 -12 7 -12 -12z"/>
<path d="M2250 4703 c0 -852 4 -1313 10 -1303 6 9 10 10 10 3 0 -6 -4 -14 -9
-18 -6 -3 -10 -254 -11 -640 l-1 -635 648 0 c373 0 662 4 681 9 20 6 30 6 26
0 -6 -10 223 -11 240 -1 14 8 75 8 70 0 -3 -4 542 -7 1211 -8 l1215 0 0 1955
0 1955 -2045 0 -2045 0 0 -1317z m712 1128 c10 -16 15 -18 28 -8 13 11 13 10
1 -6 -14 -18 -15 -18 -30 1 -9 11 -23 22 -31 25 -12 4 -11 6 2 6 10 1 23 -8
30 -18z m2249 2 c13 -15 12 -15 -8 -3 -19 12 -25 12 -40 0 -10 -8 -29 -21 -43
-29 -23 -13 -24 -13 -11 2 7 10 19 17 26 17 7 0 18 7 25 15 16 20 34 19 51 -2z
m95 -15 c19 -23 19 -23 -1 -7 -11 9 -27 19 -35 22 -13 5 -13 6 1 6 9 1 24 -9
35 -21z m-2415 -30 c-3 -21 -6 -26 -9 -15 -3 17 3 47 11 47 2 0 1 -15 -2 -32z
m2351 -10 c5 -28 4 -29 -9 -13 -15 21 -17 45 -4 45 5 0 11 -14 13 -32z m-2262
-12 c0 -7 7 -19 15 -26 8 -7 15 -21 15 -31 0 -10 10 -25 22 -33 12 -9 18 -16
14 -16 -16 0 -46 33 -46 50 0 9 -8 24 -19 34 -16 15 -19 15 -31 1 -14 -16 -46
-20 -54 -6 -3 4 5 6 19 4 16 -4 27 1 37 16 15 24 28 27 28 7z m-199 -23 c13
-15 12 -15 -8 -2 -19 11 -27 12 -44 1 -16 -10 -24 -11 -33 -2 -8 8 -7 10 5 5
10 -4 20 -2 24 4 10 16 41 13 56 -6z m2665 4 c-10 -7 -21 -29 -26 -47 -7 -29
-8 -31 -9 -10 -1 28 24 70 41 70 7 0 4 -6 -6 -13z m-3065 -13 c-17 -12 -22
-24 -19 -45 3 -15 1 -26 -4 -23 -23 14 7 84 36 84 6 0 0 -7 -13 -16z m281 4
c-17 -17 -15 -58 6 -82 17 -21 17 -21 -5 -2 -25 21 -30 65 -11 84 7 7 14 12
17 12 3 0 0 -5 -7 -12z m3198 -11 c-44 -22 -33 -95 12 -84 10 3 16 1 12 -4
-14 -24 -64 10 -64 44 0 25 28 57 49 57 10 0 7 -5 -9 -13z m161 -54 c13 -17
12 -17 -4 -4 -16 13 -22 13 -40 1 -20 -12 -21 -12 -8 3 17 22 35 21 52 0z
m-512 -15 c13 -21 13 -22 -1 -10 -13 10 -17 10 -21 0 -3 -7 -6 -3 -6 10 -1 12
2 22 7 22 4 0 13 -10 21 -22z m-324 -5 c-11 -3 -27 -10 -35 -17 -13 -10 -13
-9 -1 7 7 9 23 16 35 16 20 -1 20 -2 1 -6z m-2746 -15 c-1 -7 -5 -24 -10 -38
-8 -22 -8 -22 -4 7 4 28 1 32 -23 36 -25 4 -24 4 6 6 20 0 32 -4 31 -11z m665
4 c2 -4 -11 -6 -30 -4 -19 2 -34 6 -34 8 0 8 59 4 64 -4z m-113 -18 c-17 -12
-22 -24 -19 -45 3 -15 1 -26 -4 -23 -23 14 7 84 36 84 6 0 0 -7 -13 -16z
m3286 -3 c16 13 17 13 4 -3 -17 -22 -35 -23 -52 -1 -13 15 -12 15 8 3 18 -12
24 -12 40 1z m-260 -20 c16 13 17 13 4 -3 -17 -22 -35 -23 -52 -1 -13 15 -12
15 8 3 18 -12 24 -12 40 1z m-753 -72 c-9 -10 -22 -19 -28 -19 -6 0 0 7 12 16
12 8 23 27 23 42 2 25 2 25 6 4 3 -14 -3 -32 -13 -43z m-2163 -19 c10 0 23 8
28 18 6 9 11 12 11 6 0 -17 -27 -36 -46 -32 -9 2 -23 14 -32 28 -14 25 -14 25
3 3 10 -13 26 -23 36 -23z m1910 -64 c-7 -8 -11 -27 -9 -43 2 -22 9 -29 33
-34 28 -6 28 -7 5 -8 -33 -1 -50 16 -50 49 0 14 5 31 12 38 17 17 23 15 9 -2z
m203 -25 c10 -11 16 -29 13 -43 -4 -21 -4 -21 -6 4 0 15 -11 34 -23 42 -12 9
-18 16 -12 16 6 0 19 -9 28 -19z m-1840 -10 c16 -9 31 -23 34 -31 3 -13 2 -13
-6 -1 -6 8 -27 22 -48 32 -22 10 -32 18 -24 18 8 0 28 -8 44 -18z m1814 -72
c11 0 12 -2 4 -6 -15 -6 -42 14 -42 31 0 6 5 3 11 -6 5 -10 18 -18 27 -19z
m-232 -71 c4 -6 3 -8 -4 -4 -6 3 -12 -3 -15 -16 -4 -20 -4 -19 -6 5 -1 28 12
36 25 15z m-1441 -51 c16 -5 15 -5 -4 -4 -14 1 -26 9 -28 17 -3 10 -2 11 4 4
4 -7 17 -14 28 -17z m1378 -17 c-12 -5 -26 -17 -32 -27 -6 -10 -11 -14 -11 -9
0 16 32 46 49 45 11 0 9 -3 -6 -9z m-952 -46 c8 -10 3 -10 -20 2 -17 9 -31 17
-31 19 0 8 40 -9 51 -21z m-221 -9 c-7 -8 -20 -15 -29 -14 -11 0 -9 3 7 9 12
5 22 15 22 21 0 7 3 9 6 6 4 -4 1 -13 -6 -22z m-90 -12 c11 3 18 1 14 -4 -9
-15 -41 -10 -55 9 -13 15 -12 16 3 3 10 -7 27 -11 38 -8z m1024 -33 c7 0 13
-7 13 -15 0 -12 -3 -12 -16 -2 -21 16 -31 30 -31 42 1 6 5 2 11 -7 5 -10 16
-18 23 -18z m-406 -5 c11 -13 22 -21 26 -18 3 3 6 -2 6 -13 -1 -17 -3 -16 -21
6 -11 14 -28 31 -37 38 -9 6 -11 12 -5 12 7 0 20 -11 31 -25z m-311 -14 c17
13 17 13 4 -4 -8 -10 -23 -16 -32 -14 -11 3 -20 -2 -22 -12 -3 -9 -5 -4 -6 12
-1 24 1 26 18 15 15 -9 23 -9 38 3z m411 -55 c-7 -6 -10 -7 -5 -2 4 6 8 21 8
36 2 25 2 25 6 1 3 -13 -1 -29 -9 -35z m-138 -21 l25 -30 -27 24 c-16 14 -28
29 -28 34 0 6 1 8 3 6 1 -2 13 -17 27 -34z m-1889 -1632 c13 -17 12 -17 -4 -4
-16 13 -22 13 -40 1 -20 -12 -21 -12 -8 3 17 22 35 21 52 0z m59 -62 c0 -28
-16 -51 -34 -51 -6 0 -3 5 7 11 20 12 23 58 5 79 -11 12 -10 12 5 1 9 -7 17
-25 17 -40z m142 22 c18 -16 25 -58 10 -67 -5 -3 -7 8 -4 23 3 21 -2 33 -19
45 -13 9 -19 16 -15 16 5 0 18 -7 28 -17z m-197 -63 c3 -5 -8 -2 -25 6 -16 9
-32 19 -35 24 -3 5 8 2 25 -6 16 -9 32 -19 35 -24z m173 -21 c11 0 12 -2 4 -6
-15 -6 -42 14 -42 31 0 6 5 3 11 -6 5 -10 18 -18 27 -19z m209 -196 c-3 -10
-5 -2 -5 17 0 19 2 27 5 18 2 -10 2 -26 0 -35z m72 13 c-2 -2 -17 -6 -34 -10
-22 -5 -26 -4 -15 4 14 9 59 15 49 6z m-36 -104 c15 3 24 1 21 -3 -14 -23 -74
-2 -74 25 0 5 6 2 13 -9 10 -12 22 -16 40 -13z m164 -231 c16 13 17 13 4 -3
-17 -22 -35 -23 -52 -1 -13 15 -12 15 8 3 18 -12 24 -12 40 1z m174 -108 c13
-17 12 -17 -4 -4 -16 13 -22 13 -40 1 -20 -12 -21 -12 -8 3 17 22 35 21 52 0z
m-14 -142 c0 -11 -4 -18 -8 -16 -7 5 -26 -30 -32 -60 -4 -16 -5 -15 -6 6 0 14
4 30 11 37 9 9 8 12 -4 12 -9 0 -19 4 -22 9 -3 4 6 6 19 3 17 -3 27 1 31 12 8
22 13 20 11 -3z m117 -30 c10 -11 16 -29 13 -43 -4 -21 -4 -21 -6 4 0 15 -11
34 -23 42 -12 9 -18 16 -12 16 6 0 19 -9 28 -19z m-24 -83 c10 -3 8 -6 -8 -10
-12 -4 -20 -2 -16 3 3 5 0 9 -5 9 -6 0 -11 5 -11 11 0 8 4 8 13 2 6 -6 19 -12
27 -15z m-91 -42 c-1 -20 -2 -20 -6 -1 -3 11 -12 29 -22 40 -16 20 -16 20 7 1
12 -11 21 -29 21 -40z m252 -73 l24 -28 -27 24 c-18 16 -35 22 -52 19 -14 -3
-23 -1 -20 3 11 18 51 8 75 -18z m590 -60 c13 -17 12 -17 -4 -4 -16 13 -22 13
-40 1 -20 -12 -21 -12 -8 3 17 22 35 21 52 0z m-241 -38 c-7 -8 -24 -14 -39
-14 l-26 2 28 4 c16 3 31 11 34 19 3 8 8 13 11 10 3 -3 -1 -12 -8 -21z m174
-14 c-9 -8 -99 7 -91 15 2 3 23 1 46 -5 35 -8 41 -6 42 8 0 11 2 12 6 3 3 -8
1 -17 -3 -21z"/>
<path d="M2201 5716 c-6 -7 -13 -37 -15 -65 -2 -48 -1 -52 18 -49 18 3 21 11
24 66 3 61 -5 75 -27 48z"/>
<path d="M2208 5592 c-17 -3 -18 -61 -20 -950 -2 -521 -1 -1003 2 -1071 5
-118 6 -122 23 -104 16 19 17 81 15 1074 -3 994 -4 1054 -20 1051z"/>
<path d="M20 2895 l0 -785 1075 0 1075 0 0 785 0 785 -210 0 c-176 0 -210 -2
-210 -14 0 -8 -4 -17 -9 -20 -5 -4 -7 3 -4 14 5 17 0 20 -26 20 -33 0 -40 -16
-18 -40 10 -12 9 -12 -5 -1 -10 7 -18 20 -18 27 0 11 -19 14 -85 14 -76 0 -84
-2 -79 -17 5 -17 5 -17 -6 0 -9 13 -25 17 -75 17 -52 0 -64 -3 -68 -17 -4 -17
-5 -17 -6 0 -1 14 -11 17 -55 17 -52 0 -53 0 -50 -27 4 -27 3 -27 -4 -3 -7 23
-13 25 -80 27 -74 2 -87 -6 -59 -37 10 -12 9 -12 -5 -1 -10 7 -18 20 -18 27 0
12 -86 14 -530 14 l-530 0 0 -785z m1421 728 c12 -15 12 -16 -1 -8 -8 5 -26 9
-40 8 l-25 -2 25 8 c14 5 26 9 26 10 1 1 8 -7 15 -16z m-215 -18 c-22 -17 -52
-20 -60 -6 -4 5 3 7 13 4 11 -3 28 0 38 6 26 15 31 13 9 -4z m764 -20 c7 -9
10 -18 6 -22 -3 -3 -6 -1 -6 6 0 6 -10 16 -22 21 -16 6 -18 9 -7 9 9 1 22 -6
29 -14z m-1482 -7 c7 -7 12 -24 12 -38 0 -51 -52 -69 -72 -25 -22 49 25 98 60
63z m164 -13 c22 -49 -25 -98 -60 -63 -7 7 -12 24 -12 38 0 51 52 69 72 25z
m150 0 c22 -49 -25 -98 -60 -63 -15 15 -15 61 0 76 20 20 48 14 60 -13z m146
13 c7 -7 12 -24 12 -38 0 -51 -52 -69 -72 -25 -22 49 25 98 60 63z m150 0 c26
-26 8 -88 -24 -88 -19 0 -44 29 -44 50 0 21 25 50 44 50 6 0 17 -5 24 -12z
m158 -13 c15 -23 15 -27 0 -50 -9 -14 -23 -25 -31 -25 -8 0 -22 11 -31 25 -15
23 -15 27 0 50 9 14 23 25 31 25 8 0 22 -11 31 -25z m156 0 c22 -49 -25 -98
-60 -63 -7 7 -12 24 -12 38 0 51 52 69 72 25z m146 13 c7 -7 12 -24 12 -38 0
-51 -52 -69 -72 -25 -22 49 25 98 60 63z m571 -137 l-2 -26 -4 25 c-3 14 -10
32 -16 40 -11 13 -10 13 6 1 9 -7 16 -25 16 -40z m-29 -38 c16 4 20 3 13 -4
-17 -17 -44 -7 -61 21 l-14 25 19 -24 c15 -17 27 -22 43 -18z m-1445 -28 l0
-50 -40 0 c-39 0 -40 1 -43 39 -5 58 2 68 45 64 l38 -3 0 -50z m153 3 l-3 -53
-37 -3 -38 -3 0 55 0 56 41 0 40 0 -3 -52z m152 -3 l0 -55 -40 0 -40 0 0 55 0
55 40 0 40 0 0 -55z m150 -1 l0 -55 -37 3 c-36 3 -38 5 -41 42 -5 55 2 66 43
66 l35 0 0 -56z m155 1 l0 -50 -40 0 c-39 0 -40 1 -43 39 -5 58 2 68 45 64
l38 -3 0 -50z m150 0 l0 -50 -37 -3 -38 -3 0 56 0 56 38 -3 37 -3 0 -50z m155
0 l0 -55 -40 0 -40 0 0 55 0 55 40 0 40 0 0 -55z m-1070 -165 l0 -50 -40 0
-40 0 0 50 0 50 40 0 40 0 0 -50z m310 0 l0 -50 -40 0 -40 0 0 50 0 50 40 0
40 0 0 -50z m150 0 l0 -50 -40 0 -40 0 0 50 0 50 40 0 40 0 0 -50z m155 0 l0
-45 -42 -3 -43 -3 0 51 0 51 43 -3 42 -3 0 -45z m155 -1 l0 -50 -42 3 -43 3
-3 48 -3 47 45 0 46 0 0 -51z m150 1 l0 -50 -40 0 -40 0 0 50 0 50 40 0 40 0
0 -50z m150 0 l0 -50 -40 0 -40 0 0 50 0 50 40 0 40 0 0 -50z m-1070 -166 l0
-55 -37 3 c-36 3 -38 5 -41 42 -5 55 2 66 43 66 l35 0 0 -56z m155 1 c0 -50 0
-50 -34 -53 -40 -4 -51 9 -51 59 0 45 6 51 50 47 l35 -3 0 -50z m305 -1 l0
-55 -37 3 -38 3 -3 53 -3 52 40 0 41 0 0 -56z m150 0 l0 -55 -37 3 c-36 3 -38
5 -41 42 -5 55 2 66 43 66 l35 0 0 -56z m155 1 l0 -50 -40 0 c-39 0 -40 1 -43
39 -5 58 2 68 45 64 l38 -3 0 -50z m153 3 l-3 -53 -37 -3 -38 -3 0 55 0 56 41
0 40 0 -3 -52z m152 -4 l0 -55 -37 3 -38 3 -3 53 -3 52 40 0 41 0 0 -56z
m-1070 -164 l0 -50 -40 0 -40 0 0 50 0 50 40 0 40 0 0 -50z m160 -1 l0 -50
-42 3 c-41 3 -43 5 -46 36 -5 52 3 62 48 62 l40 0 0 -51z m150 1 l0 -50 -40 0
-40 0 0 50 0 50 40 0 40 0 0 -50z m305 0 l0 -45 -42 -3 -43 -3 0 51 0 51 43
-3 42 -3 0 -45z m153 3 l-3 -48 -40 0 -40 0 -3 48 -3 47 46 0 46 0 -3 -47z
m152 -3 l0 -50 -40 0 -40 0 0 50 0 50 40 0 40 0 0 -50z m150 0 l0 -50 -40 0
-40 0 0 50 0 50 40 0 40 0 0 -50z m-1070 -166 l0 -55 -37 3 c-36 3 -38 5 -41
42 -5 55 2 66 43 66 l35 0 0 -56z m158 4 l-3 -53 -40 0 c-39 0 -40 1 -43 39
-5 57 2 66 48 66 l41 0 -3 -52z m150 0 l-3 -53 -37 -3 -38 -3 0 55 0 56 41 0
40 0 -3 -52z m152 -4 l0 -55 -37 3 -38 3 -3 53 -3 52 40 0 41 0 0 -56z m154
40 c9 -22 7 -67 -3 -82 -5 -8 -22 -12 -42 -10 -32 3 -34 6 -37 42 -2 21 -1 44
2 52 8 20 72 18 80 -2z m151 -39 l0 -50 -40 0 c-39 0 -40 1 -43 39 -5 58 2 68
45 64 l38 -3 0 -50z m153 3 l-3 -53 -37 -3 -38 -3 0 55 0 56 41 0 40 0 -3 -52z
m150 0 l-3 -53 -35 0 -35 0 -3 53 -3 52 41 0 41 0 -3 -52z m-1068 -168 l0 -50
-40 0 -40 0 0 50 0 50 40 0 40 0 0 -50z m160 -1 l0 -50 -42 3 c-41 3 -43 5
-46 36 -5 52 3 62 48 62 l40 0 0 -51z m150 1 l0 -50 -40 0 -40 0 0 50 0 50 40
0 40 0 0 -50z m150 0 l0 -50 -40 0 -40 0 0 50 0 50 40 0 40 0 0 -50z m150 0
l0 -50 -40 0 -40 0 0 50 0 50 40 0 40 0 0 -50z m158 3 l-3 -48 -40 0 c-38 0
-40 2 -43 33 -5 52 3 62 48 62 l41 0 -3 -47z m152 -3 l0 -50 -40 0 -40 0 0 50
0 50 40 0 40 0 0 -50z m150 0 l0 -50 -40 0 -40 0 0 50 0 50 40 0 40 0 0 -50z
m-1070 -166 l0 -55 -37 3 c-36 3 -38 5 -41 42 -5 55 2 66 43 66 l35 0 0 -56z
m158 4 c-3 -52 -4 -53 -37 -56 -40 -4 -51 9 -51 59 0 45 4 49 52 49 l39 0 -3
-52z m150 0 l-3 -53 -35 0 -35 0 -3 53 -3 52 41 0 41 0 -3 -52z m150 0 l-3
-53 -35 0 -35 0 -3 53 -3 52 41 0 41 0 -3 -52z m156 36 c9 -22 7 -67 -3 -82
-5 -8 -22 -12 -42 -10 -33 3 -34 4 -37 56 l-3 52 39 0 c27 0 42 -5 46 -16z
m151 -39 l0 -50 -40 0 c-39 0 -40 1 -43 39 -5 58 2 68 45 64 l38 -3 0 -50z
m153 3 l-3 -53 -37 -3 -38 -3 0 55 0 56 41 0 40 0 -3 -52z m150 0 l-3 -53 -35
0 -35 0 -3 53 -3 52 41 0 41 0 -3 -52z m-1068 -168 l0 -50 -40 0 -40 0 0 50 0
50 40 0 40 0 0 -50z m160 -1 l0 -50 -42 3 c-41 3 -43 5 -46 36 -5 52 3 62 48
62 l40 0 0 -51z m150 1 l0 -50 -40 0 -40 0 0 50 0 50 40 0 40 0 0 -50z m150 0
l0 -50 -40 0 -40 0 0 50 0 50 40 0 40 0 0 -50z m150 0 l0 -50 -40 0 -40 0 0
50 0 50 40 0 40 0 0 -50z m158 3 l-3 -48 -40 0 c-38 0 -40 2 -43 33 -5 52 3
62 48 62 l41 0 -3 -47z m152 -3 l0 -50 -40 0 -40 0 0 50 0 50 40 0 40 0 0 -50z
m150 0 l0 -50 -40 0 -40 0 0 50 0 50 40 0 40 0 0 -50z"/>
<path d="M473 3573 c-17 -6 -16 -60 1 -66 17 -7 36 11 36 34 0 20 -21 38 -37
32z"/>
<path d="M621 3567 c-23 -23 -4 -71 25 -60 8 3 14 18 14 33 0 30 -21 45 -39
27z"/>
<path d="M771 3567 c-14 -14 -14 -40 1 -55 17 -17 26 -15 38 7 18 34 -14 73
-39 48z"/>
<path d="M926 3565 c-20 -20 -20 -26 -2 -50 12 -16 16 -17 30 -6 20 17 21 45
2 60 -11 9 -18 8 -30 -4z"/>
<path d="M1232 3568 c-16 -16 -15 -43 1 -57 16 -13 37 4 37 30 0 25 -24 41
-38 27z"/>
<path d="M1381 3567 c-23 -23 -4 -71 25 -60 8 3 14 18 14 33 0 30 -21 45 -39
27z"/>
<path d="M1536 3565 c-20 -20 -20 -26 -2 -50 12 -16 16 -17 30 -6 20 17 21 45
2 60 -11 9 -18 8 -30 -4z"/>
<path d="M610 3375 c0 -31 3 -35 25 -35 22 0 25 4 25 35 0 31 -3 35 -25 35
-22 0 -25 -4 -25 -35z"/>
<path d="M760 3375 c0 -32 2 -35 30 -35 28 0 30 3 30 35 0 32 -2 35 -30 35
-28 0 -30 -3 -30 -35z"/>
<path d="M910 3375 c0 -32 2 -35 30 -35 28 0 30 3 30 35 0 32 -2 35 -30 35
-28 0 -30 -3 -30 -35z"/>
<path d="M1070 3375 c0 -31 3 -35 25 -35 22 0 25 4 25 35 0 31 -3 35 -25 35
-22 0 -25 -4 -25 -35z"/>
<path d="M1220 3375 c0 -31 3 -35 25 -35 22 0 25 4 25 35 0 31 -3 35 -25 35
-22 0 -25 -4 -25 -35z"/>
<path d="M1370 3375 c0 -32 2 -35 30 -35 28 0 30 3 30 35 0 32 -2 35 -30 35
-28 0 -30 -3 -30 -35z"/>
<path d="M1520 3375 c0 -32 2 -35 30 -35 28 0 30 3 30 35 0 32 -2 35 -30 35
-28 0 -30 -3 -30 -35z"/>
<path d="M460 3210 c0 -36 3 -40 25 -40 23 0 25 4 25 40 0 36 -2 40 -25 40
-22 0 -25 -4 -25 -40z"/>
<path d="M762 3213 c3 -33 6 -38 28 -38 22 0 25 5 25 35 0 31 -3 35 -28 38
-27 3 -28 2 -25 -35z"/>
<path d="M914 3236 c-3 -8 -4 -25 -2 -38 2 -17 9 -23 28 -23 22 0 25 4 25 35
0 29 -4 36 -23 38 -13 2 -24 -3 -28 -12z"/>
<path d="M1070 3212 c0 -33 3 -38 25 -40 23 -2 25 2 25 38 0 36 -3 40 -25 40
-22 0 -25 -4 -25 -38z"/>
<path d="M1220 3210 c0 -36 2 -40 25 -38 22 2 25 7 25 40 0 34 -3 38 -25 38
-22 0 -25 -4 -25 -40z"/>
<path d="M1370 3210 c0 -39 2 -41 27 -38 23 3 27 7 27 38 0 31 -4 35 -27 38
-25 3 -27 1 -27 -38z"/>
<path d="M1524 3236 c-12 -32 0 -61 29 -64 26 -3 27 -1 27 37 0 37 -2 41 -25
41 -14 0 -28 -6 -31 -14z"/>
<path d="M460 3045 c0 -31 3 -35 25 -35 22 0 25 4 25 35 0 31 -3 35 -25 35
-22 0 -25 -4 -25 -35z"/>
<path d="M610 3045 c0 -31 3 -35 25 -35 22 0 25 4 25 35 0 31 -3 35 -25 35
-22 0 -25 -4 -25 -35z"/>
<path d="M910 3045 c0 -32 2 -35 30 -35 28 0 30 3 30 35 0 32 -2 35 -30 35
-28 0 -30 -3 -30 -35z"/>
<path d="M1070 3045 c0 -31 3 -35 25 -35 22 0 25 4 25 35 0 31 -3 35 -25 35
-22 0 -25 -4 -25 -35z"/>
<path d="M1220 3045 c0 -31 3 -35 25 -35 22 0 25 4 25 35 0 31 -3 35 -25 35
-22 0 -25 -4 -25 -35z"/>
<path d="M1370 3045 c0 -32 3 -35 28 -35 24 0 27 3 27 35 0 32 -3 35 -27 35
-25 0 -28 -3 -28 -35z"/>
<path d="M1520 3045 c0 -32 2 -35 30 -35 28 0 30 3 30 35 0 32 -2 35 -30 35
-28 0 -30 -3 -30 -35z"/>
<path d="M460 2880 c0 -36 3 -40 25 -40 23 0 25 4 25 40 0 36 -2 40 -25 40
-22 0 -25 -4 -25 -40z"/>
<path d="M610 2883 c0 -34 3 -38 25 -38 22 0 25 4 25 38 0 33 -3 37 -25 37
-22 0 -25 -4 -25 -37z"/>
<path d="M762 2883 c3 -33 6 -38 28 -38 22 0 25 4 25 35 0 31 -3 35 -28 38
-27 3 -28 2 -25 -35z"/>
<path d="M1070 2883 c0 -34 3 -38 25 -38 22 0 25 4 25 38 0 33 -3 37 -25 37
-22 0 -25 -4 -25 -37z"/>
<path d="M1220 2880 c0 -36 3 -40 25 -40 23 0 25 4 25 40 0 36 -2 40 -25 40
-22 0 -25 -4 -25 -40z"/>
<path d="M1370 2886 c0 -29 4 -36 20 -36 11 0 23 0 27 0 4 0 7 15 7 33 0 27
-4 32 -27 35 -25 3 -27 0 -27 -32z"/>
<path d="M1524 2906 c-3 -8 -4 -25 -2 -38 2 -17 9 -23 28 -23 22 0 25 5 28 38
3 34 1 37 -23 37 -14 0 -28 -6 -31 -14z"/>
<path d="M460 2715 c0 -31 3 -35 25 -35 22 0 25 4 25 35 0 31 -3 35 -25 35
-22 0 -25 -4 -25 -35z"/>
<path d="M610 2715 c0 -31 3 -35 25 -35 22 0 25 4 25 35 0 31 -3 35 -25 35
-22 0 -25 -4 -25 -35z"/>
<path d="M760 2715 c0 -32 2 -35 30 -35 28 0 30 3 30 35 0 32 -2 35 -30 35
-28 0 -30 -3 -30 -35z"/>
<path d="M910 2715 c0 -32 2 -35 30 -35 28 0 30 3 30 35 0 32 -2 35 -30 35
-28 0 -30 -3 -30 -35z"/>
<path d="M1070 2715 c0 -31 3 -35 25 -35 22 0 25 4 25 35 0 31 -3 35 -25 35
-22 0 -25 -4 -25 -35z"/>
<path d="M1220 2715 c0 -31 3 -35 25 -35 22 0 25 4 25 35 0 31 -3 35 -25 35
-22 0 -25 -4 -25 -35z"/>
<path d="M1370 2715 c0 -32 3 -35 28 -35 24 0 27 3 27 35 0 32 -3 35 -27 35
-25 0 -28 -3 -28 -35z"/>
<path d="M1520 2715 c0 -32 2 -35 30 -35 28 0 30 3 30 35 0 32 -2 35 -30 35
-28 0 -30 -3 -30 -35z"/>
<path d="M460 2553 c0 -34 3 -38 25 -38 22 0 25 4 25 38 0 33 -3 37 -25 37
-22 0 -25 -4 -25 -37z"/>
<path d="M610 2556 c0 -28 4 -34 25 -38 23 -5 25 -2 25 33 0 35 -3 39 -25 39
-22 0 -25 -4 -25 -34z"/>
<path d="M760 2557 c0 -29 4 -35 26 -40 28 -5 38 8 32 45 -2 17 -11 24 -30 26
-26 3 -28 1 -28 -31z"/>
<path d="M912 2553 c3 -33 6 -38 28 -38 22 0 25 5 28 38 3 35 2 37 -28 37 -30
0 -31 -2 -28 -37z"/>
<path d="M1070 2553 c0 -34 3 -38 25 -38 22 0 25 4 25 38 0 33 -3 37 -25 37
-22 0 -25 -4 -25 -37z"/>
<path d="M1220 2553 c0 -34 3 -38 25 -38 22 0 25 4 25 38 0 33 -3 37 -25 37
-22 0 -25 -4 -25 -37z"/>
<path d="M1370 2556 c0 -33 3 -36 28 -36 24 0 27 3 26 32 -1 28 -5 33 -27 36
-25 3 -27 0 -27 -32z"/>
<path d="M1520 2557 c0 -41 4 -45 35 -39 21 4 25 10 25 38 0 31 -3 34 -30 34
-27 0 -30 -3 -30 -33z"/>
<path d="M460 2385 c0 -31 3 -35 25 -35 22 0 25 4 25 35 0 31 -3 35 -25 35
-22 0 -25 -4 -25 -35z"/>
<path d="M610 2385 c0 -31 3 -35 25 -35 22 0 25 4 25 35 0 31 -3 35 -25 35
-22 0 -25 -4 -25 -35z"/>
<path d="M760 2385 c0 -32 2 -35 30 -35 29 0 30 2 28 35 -2 31 -5 35 -30 35
-25 0 -28 -3 -28 -35z"/>
<path d="M910 2385 c0 -32 2 -35 30 -35 28 0 30 3 30 35 0 32 -2 35 -30 35
-28 0 -30 -3 -30 -35z"/>
<path d="M1070 2385 c0 -31 3 -35 25 -35 22 0 25 4 25 35 0 31 -3 35 -25 35
-22 0 -25 -4 -25 -35z"/>
<path d="M1220 2385 c0 -31 3 -35 25 -35 22 0 25 4 25 35 0 31 -3 35 -25 35
-22 0 -25 -4 -25 -35z"/>
<path d="M1370 2385 c0 -32 3 -35 28 -35 24 0 27 3 27 35 0 32 -3 35 -27 35
-25 0 -28 -3 -28 -35z"/>
<path d="M1520 2385 c0 -32 2 -35 30 -35 28 0 30 3 30 35 0 32 -2 35 -30 35
-28 0 -30 -3 -30 -35z"/>
<path d="M460 2221 c0 -35 2 -38 25 -33 21 4 25 10 25 38 0 30 -3 34 -25 34
-22 0 -25 -4 -25 -39z"/>
<path d="M610 2226 c0 -28 4 -34 25 -38 23 -5 25 -2 25 33 0 35 -3 39 -25 39
-22 0 -25 -4 -25 -34z"/>
<path d="M760 2226 c0 -33 2 -36 31 -36 28 0 30 2 27 33 -2 27 -8 33 -30 35
-26 3 -28 1 -28 -32z"/>
<path d="M910 2225 c0 -32 2 -35 30 -35 28 0 30 3 30 35 0 32 -2 35 -30 35
-28 0 -30 -3 -30 -35z"/>
<path d="M1070 2221 c0 -35 2 -38 25 -33 21 4 25 10 25 38 0 30 -3 34 -25 34
-22 0 -25 -4 -25 -39z"/>
<path d="M1220 2223 c0 -34 3 -38 25 -38 22 0 25 4 25 38 0 33 -3 37 -25 37
-22 0 -25 -4 -25 -37z"/>
<path d="M1370 2226 c0 -33 2 -36 31 -36 28 0 30 2 27 33 -2 27 -8 33 -30 35
-26 3 -28 1 -28 -32z"/>
<path d="M1520 2225 c0 -32 2 -35 30 -35 28 0 30 3 30 35 0 32 -2 35 -30 35
-28 0 -30 -3 -30 -35z"/>
<path d="M2206 3448 c-13 -18 -15 -109 -16 -682 0 -363 -4 -664 -8 -668 -5 -5
-497 -7 -1095 -6 l-1087 3 0 -75 0 -75 1092 0 1093 0 0 -973 0 -972 25 0 25 0
-3 975 -2 975 2950 0 c2750 0 2950 1 2950 17 0 9 -8 26 -17 37 -18 21 -18 21
5 2 12 -11 22 -27 22 -38 0 -17 19 -18 430 -18 l430 0 0 73 0 72 -374 -3 -375
-2 -4 -23 c-4 -20 -4 -20 -6 3 l-1 25 -910 -3 -910 -2 0 364 0 365 -27 -2 -28
-2 -5 -360 -5 -360 -1248 -3 c-1179 -2 -1250 -3 -1265 -20 -10 -9 -14 -13 -9
-8 4 6 7 15 7 21 0 7 -245 9 -796 7 -438 -2 -801 1 -805 5 -5 5 -9 316 -9 691
0 375 -2 682 -5 682 -2 0 -11 -10 -19 -22z m1976 -1424 c-12 -8 -23 -27 -23
-42 -2 -25 -2 -25 -6 -4 -5 24 21 62 41 62 6 0 0 -7 -12 -16z m57 -48 c-1 -17
-2 -16 -9 6 -4 14 -11 32 -15 40 -3 7 1 4 9 -6 9 -11 16 -29 15 -40z"/>
<path d="M6360 3070 c0 -16 5 -30 10 -30 6 0 10 14 10 30 0 17 -4 30 -10 30
-5 0 -10 -13 -10 -30z"/>
<path d="M6364 2866 c-9 -24 4 -48 23 -44 12 2 18 12 18 28 0 29 -32 41 -41
16z"/>
<path d="M20 975 l0 -955 1075 0 1075 0 0 955 0 955 -1075 0 -1075 0 0 -955z
m360 829 c0 -8 5 -12 10 -9 10 6 14 -1 24 -47 4 -16 2 -28 -4 -28 -5 0 -10 14
-10 30 0 17 -4 30 -10 30 -5 0 -10 -13 -10 -30 0 -16 -3 -30 -8 -30 -4 0 -7
22 -7 50 0 27 3 50 8 50 4 0 7 -7 7 -16z m287 -31 c-4 -17 -4 -17 -12 0 -4 9
-4 25 0 35 8 16 8 16 12 0 3 -10 3 -26 0 -35z m-557 22 c0 -8 5 -15 11 -15 6
0 9 7 5 15 -3 8 -1 15 4 15 6 0 10 -20 10 -45 0 -25 -5 -45 -11 -45 -6 0 -8 9
-4 20 4 11 2 20 -4 20 -6 0 -11 -9 -11 -20 0 -11 -4 -20 -10 -20 -5 0 -10 20
-10 45 0 25 5 45 10 45 6 0 10 -7 10 -15z m216 0 c9 -8 11 -15 5 -15 -6 0 -11
-9 -11 -20 0 -12 7 -20 17 -20 13 0 14 -3 5 -12 -22 -22 -48 20 -43 70 1 16 9
15 27 -3z m-136 -31 c0 -13 5 -24 10 -24 6 0 10 -4 10 -10 0 -5 -11 -10 -25
-10 -14 0 -25 5 -25 10 0 6 5 10 11 10 7 0 9 11 5 30 -3 19 -2 29 4 25 6 -3
10 -17 10 -31z m290 21 c15 -18 6 -30 -25 -38 -14 -3 -11 -5 10 -6 24 -1 27
-3 13 -11 -37 -22 -67 27 -36 58 16 16 23 15 38 -3z m80 5 c3 -1 -5 -5 -17
-10 -23 -9 -32 -40 -13 -40 6 0 10 -4 10 -10 0 -5 -8 -10 -18 -10 -14 0 -17 8
-17 39 0 36 2 39 25 36 14 -2 27 -4 30 -5z m58 -14 c3 -11 -4 -20 -20 -24
l-23 -6 25 -7 c23 -6 23 -7 6 -14 -13 -6 -23 -3 -32 10 -18 24 -17 30 2 50 19
19 38 15 42 -9z"/>
<path d="M2250 975 l0 -955 3370 0 3370 0 0 955 0 955 -3370 0 -3370 0 0 -955z
m5823 904 c18 -1 18 -2 4 -6 -20 -5 -47 13 -47 31 0 6 5 3 11 -6 5 -10 20 -19
32 -19z m-3378 -60 c4 -5 -1 -9 -9 -9 -19 0 -22 -20 -3 -21 10 0 10 -2 0 -6
-7 -2 -13 -14 -13 -25 0 -28 24 -17 30 14 4 19 11 24 28 23 21 -2 41 -19 42
-36 0 -3 -6 -14 -14 -25 -13 -17 -17 -17 -37 -6 -13 8 -24 10 -28 4 -3 -5 -18
-11 -33 -14 -24 -4 -28 -2 -28 16 0 12 -5 27 -12 34 -7 7 -9 12 -6 12 4 0 14
-7 22 -16 14 -14 16 -13 16 8 0 44 3 54 21 55 10 1 21 -2 24 -8z m-2210 -42
c0 -21 3 -37 8 -37 4 0 7 -4 7 -10 0 -5 -8 -10 -18 -10 -14 0 -17 9 -17 50 0
29 4 48 10 47 6 -2 10 -20 10 -40z m1025 3 c0 -22 5 -40 10 -40 6 0 10 -4 10
-10 0 -5 -11 -10 -25 -10 -14 0 -25 5 -25 10 0 6 5 10 10 10 15 0 12 67 -2 73
-8 3 -6 6 5 6 13 1 17 -7 17 -39z m288 22 c2 -7 -2 -10 -12 -6 -9 3 -16 2 -16
-4 0 -5 7 -13 16 -16 24 -9 14 -50 -13 -54 -15 -2 -23 2 -23 11 0 10 7 13 20
10 11 -3 20 0 20 6 0 6 -7 11 -15 11 -21 0 -30 27 -15 45 14 17 32 15 38 -3z
m-1475 -9 c-5 -11 -3 -14 6 -8 8 4 17 2 23 -6 7 -10 8 -8 5 9 -3 12 -1 22 4
22 5 0 9 -18 9 -40 0 -38 -20 -60 -20 -22 -1 13 -4 12 -14 -7 l-13 -23 -7 32
c-8 45 -8 60 4 60 5 0 6 -7 3 -17z m575 -3 c15 -1 15 -2 0 -11 -25 -14 -22
-39 5 -39 20 -1 21 -1 4 -11 -23 -13 -35 -3 -37 31 -3 36 0 58 7 43 2 -7 12
-13 21 -13z m207 -35 c0 -55 -7 -70 -19 -39 -12 31 -4 94 13 94 3 0 6 -25 6
-55z m135 0 c0 -24 -4 -46 -8 -49 -4 -2 -8 20 -8 49 0 29 4 51 8 49 4 -3 8
-25 8 -49z m620 32 c12 -4 11 -6 -2 -6 -24 -1 -24 -41 -1 -41 12 0 14 -3 6
-11 -15 -15 -30 -4 -36 28 -5 30 2 60 12 45 3 -5 13 -12 21 -15z m196 8 c9 -8
11 -15 5 -15 -6 0 -11 -9 -11 -20 0 -11 7 -20 16 -20 8 0 12 -4 9 -10 -13 -20
-35 -9 -43 23 -8 30 -6 57 5 57 2 0 11 -7 19 -15z m142 -5 c15 -1 15 -2 0 -11
-25 -14 -22 -39 5 -39 20 -1 21 -1 4 -11 -23 -13 -35 -3 -37 31 -3 36 0 58 7
43 2 -7 12 -13 21 -13z m371 12 c-18 -8 -22 -69 -5 -92 6 -8 7 -12 2 -8 -5 4
-17 3 -27 -2 -12 -7 -20 -7 -24 0 -3 5 2 10 12 11 16 0 15 2 -4 16 -26 18 -30
45 -8 63 8 7 15 9 15 4 0 -4 5 -3 12 4 7 7 19 12 28 11 13 0 13 -1 -1 -7z
m786 -6 c12 -12 12 -15 0 -20 -19 -7 -8 -36 13 -36 12 0 13 -3 5 -11 -18 -18
-40 -4 -45 29 -4 29 0 52 9 52 2 0 11 -6 18 -14z m-2927 -8 c18 -18 15 -28
-10 -38 -23 -9 -23 -9 2 -10 22 -1 23 -2 7 -11 -34 -20 -64 30 -35 59 7 7 15
12 18 12 3 0 11 -5 18 -12z m142 -8 c0 -4 -8 -7 -17 -6 -10 0 -19 -7 -21 -18
-3 -15 0 -18 17 -13 25 6 29 -11 5 -20 -34 -13 -52 48 -21 69 12 7 37 -1 37
-12z m64 4 c13 -13 16 -13 16 -1 0 13 43 18 53 7 9 -11 17 -74 8 -65 -5 6 -11
21 -14 35 -3 21 -5 19 -7 -10 l-3 -35 -7 35 -7 35 -2 -32 c-1 -34 -21 -47 -21
-15 -1 16 -1 16 -11 0 -13 -24 -36 -23 -49 1 -5 11 -10 22 -10 25 0 5 30 36
35 36 2 0 11 -7 19 -16z m136 1 c14 -17 5 -35 -18 -36 -10 -1 -7 -4 8 -9 22
-6 23 -8 7 -15 -35 -15 -63 35 -35 63 16 16 23 15 38 -3z m210 0 c15 -18 10
-45 -13 -59 -35 -21 -57 43 -23 66 16 11 22 10 36 -7z m198 3 c17 -17 15 -55
-4 -62 -20 -8 -44 10 -44 33 0 17 18 41 30 41 3 0 11 -5 18 -12z m148 -1 c4
-4 -1 -7 -11 -7 -14 0 -16 -6 -11 -30 4 -25 2 -30 -13 -30 -15 0 -17 7 -15 38
2 20 3 37 3 38 3 4 42 -4 47 -9z m64 -7 c8 -15 8 -21 -2 -24 -39 -12 -41 -14
-18 -15 18 -1 21 -4 13 -12 -19 -19 -43 -2 -43 30 0 26 9 38 32 40 4 1 12 -8
18 -19z m72 -28 c-5 -41 -19 -65 -34 -56 -5 3 -2 12 8 18 16 12 15 13 -5 19
-23 6 -30 52 -8 60 30 10 43 -4 39 -41z m122 40 c3 -5 7 -22 10 -38 5 -26 2
-30 -17 -30 -39 0 -50 32 -14 46 18 7 18 9 4 9 -10 1 -15 6 -12 11 8 12 22 13
29 2z m344 -4 c19 -19 15 -65 -5 -65 -40 -1 -53 45 -14 48 14 1 13 2 -2 6 -9
2 -15 9 -12 14 8 12 19 11 33 -3z m82 2 c0 -4 -7 -10 -15 -14 -17 -6 -21 -36
-5 -36 6 0 10 -4 10 -10 0 -5 -8 -10 -18 -10 -15 0 -18 8 -18 38 0 31 3 37 23
38 13 1 23 -2 23 -6z m240 -22 c0 -24 10 -19 14 8 2 13 11 17 34 17 49 -2 49
-2 56 -19 8 -22 -12 -57 -30 -50 -8 3 -14 1 -14 -4 0 -6 5 -10 11 -10 5 0 7
-5 4 -11 -15 -23 -29 -1 -26 39 1 23 -2 42 -7 42 -11 0 -32 -45 -32 -70 0 -11
-7 -20 -15 -20 -17 0 -19 12 -5 26 8 8 8 19 0 38 -13 34 -13 49 0 41 6 -3 10
-16 10 -27z m150 -4 c0 -13 5 -24 10 -24 6 0 10 -4 10 -10 0 -5 -11 -10 -25
-10 -14 0 -25 5 -25 10 0 6 5 10 10 10 6 0 10 9 10 20 0 11 -5 20 -11 20 -5 0
-7 5 -4 10 10 16 25 1 25 -26z m90 -21 c0 -13 -4 -23 -10 -23 -5 0 -10 14 -10
30 0 17 -4 30 -10 30 -5 0 -10 -13 -10 -30 0 -16 -4 -30 -9 -30 -15 0 -7 65 9
71 19 9 40 -17 40 -48z m340 47 c0 -4 -7 -10 -15 -14 -17 -6 -21 -36 -5 -36 6
0 10 -4 10 -10 0 -5 -8 -10 -18 -10 -14 0 -17 8 -17 38 0 31 3 37 22 38 13 1
23 -2 23 -6z m128 -8 c2 -8 -3 -10 -15 -5 -13 5 -12 1 6 -13 21 -18 21 -21 7
-33 -16 -14 -46 -9 -46 8 0 5 10 7 23 4 l22 -5 -23 17 c-18 13 -21 20 -11 31
13 16 31 14 37 -4z m42 -18 c0 -16 4 -23 11 -18 6 3 8 17 4 33 -4 17 -3 23 3
16 6 -5 12 -23 14 -39 2 -23 -1 -30 -17 -32 -11 -2 -23 2 -27 9 -11 18 -10 69
2 62 6 -3 10 -17 10 -31z m102 -12 c-5 -41 -19 -65 -34 -56 -5 3 -2 12 8 18
16 12 15 13 -5 19 -23 6 -28 36 -10 54 6 6 18 9 28 6 13 -3 16 -13 13 -41z
m68 3 c0 -41 -22 -76 -37 -61 -4 3 2 13 13 21 18 14 18 14 -3 15 -19 0 -23 6
-23 29 0 16 6 31 13 34 30 10 37 3 37 -38z m60 30 c14 -17 5 -35 -18 -36 -10
-1 -7 -4 8 -9 22 -6 23 -8 7 -15 -35 -15 -63 35 -35 63 16 16 23 15 38 -3z
m70 -10 c5 -14 7 -32 3 -40 -7 -19 -44 -16 -51 4 -3 10 2 11 19 6 l24 -7 -23
17 c-18 13 -21 20 -11 31 17 20 28 17 39 -11z m130 -5 c0 -10 3 -25 6 -34 4
-11 0 -16 -14 -16 -12 0 -24 5 -27 10 -3 6 -1 10 6 10 7 0 9 10 6 30 -5 23 -3
28 8 23 8 -3 15 -13 15 -23z m82 5 c20 -43 -29 -77 -52 -36 -13 25 -13 27 6
45 22 22 33 20 46 -9z m56 12 c14 -10 16 -67 2 -67 -5 0 -10 14 -10 31 0 19
-4 28 -11 23 -6 -3 -8 -17 -5 -30 4 -14 2 -24 -4 -24 -5 0 -10 18 -10 39 0 39
9 46 38 28z m76 -27 c1 -29 -3 -36 -21 -38 -15 -2 -23 2 -23 12 0 10 6 13 18
9 14 -5 14 -3 -2 9 -23 18 -15 51 11 46 12 -2 17 -13 17 -38z m2319 -2 c-2 -5
-13 -8 -23 -8 -10 0 -21 3 -23 8 -3 4 8 7 23 7 15 0 26 -3 23 -7z m-4313 -23
c0 -8 -4 -15 -10 -15 -5 0 -10 7 -10 15 0 8 5 15 10 15 6 0 10 -7 10 -15z
m2050 0 c0 -8 -4 -15 -10 -15 -5 0 -10 7 -10 15 0 8 5 15 10 15 6 0 10 -7 10
-15z m2352 -1 c-12 -8 -23 -27 -23 -42 -2 -25 -2 -25 -6 -4 -5 24 21 62 41 62
6 0 0 -7 -12 -16z m-5092 -99 c0 -25 5 -45 10 -45 6 0 10 -4 10 -10 0 -5 -9
-10 -19 -10 -11 0 -23 5 -26 10 -3 6 -1 10 6 10 8 0 10 14 7 45 -3 25 -2 45 3
45 5 0 9 -20 9 -45z m135 15 c7 0 16 -7 19 -16 9 -25 7 -64 -4 -64 -5 0 -10
14 -10 31 0 19 -4 28 -11 23 -6 -3 -9 -15 -6 -25 3 -10 1 -22 -4 -25 -5 -3 -8
20 -8 53 1 32 3 50 6 41 2 -10 10 -18 18 -18z m152 12 c-14 -3 -16 -7 -6 -18
8 -10 8 -14 0 -14 -6 0 -11 -9 -11 -20 0 -11 5 -20 10 -20 6 0 10 -4 10 -10 0
-5 -8 -10 -18 -10 -16 0 -18 7 -17 46 2 46 19 69 40 56 6 -4 2 -8 -8 -10z
m409 0 c-15 -3 -16 -6 -5 -14 11 -7 11 -11 2 -15 -15 -6 -17 -43 -3 -43 6 0
10 -4 10 -10 0 -5 -8 -10 -18 -10 -16 0 -18 7 -17 46 2 46 19 69 40 56 5 -4 2
-8 -9 -10z m486 -55 c3 -15 1 -30 -3 -33 -5 -3 -9 9 -9 25 0 17 -4 31 -10 31
-5 0 -10 -13 -10 -30 0 -16 -4 -30 -10 -30 -5 0 -9 25 -9 55 l1 56 23 -23 c12
-13 24 -35 27 -51z m528 22 c0 -21 5 -39 10 -39 6 0 10 -4 10 -10 0 -5 -9 -10
-19 -10 -11 0 -23 5 -26 10 -3 6 -1 10 4 10 6 0 11 16 11 35 0 19 -5 35 -11
35 -5 0 -7 5 -4 10 12 20 25 -1 25 -41z m-2316 35 c23 -9 20 -41 -5 -55 -16
-8 -18 -13 -9 -19 9 -6 9 -9 0 -15 -6 -4 -14 -4 -17 -1 -5 5 -7 68 -4 91 1 7
16 6 35 -1z m2399 -1 c-10 -3 -10 -9 0 -24 10 -16 9 -21 -3 -29 -8 -5 -18 -6
-22 -4 -4 3 -8 0 -8 -7 0 -6 8 -9 20 -6 22 6 28 -8 8 -17 -7 -3 -4 -5 6 -3 11
1 27 15 36 31 24 44 46 55 67 32 17 -18 17 -18 -4 -5 -19 12 -25 11 -38 -1
-12 -12 -13 -23 -5 -50 8 -32 8 -33 -5 -16 -12 15 -17 17 -29 7 -21 -17 -55
-4 -68 25 -10 20 -8 28 12 49 13 14 28 25 34 24 6 0 6 -3 -1 -6z m3272 -13
c10 -11 13 -20 8 -20 -6 0 -14 7 -17 16 -4 11 -14 15 -31 12 -13 -3 -22 -1
-19 3 9 16 40 10 59 -11z m-5199 -5 c9 -8 11 -15 5 -15 -6 0 -11 -9 -11 -21 0
-15 5 -19 15 -15 8 3 15 1 15 -3 0 -15 -28 -20 -38 -8 -15 17 -19 77 -6 77 3
0 12 -7 20 -15z m215 -15 c5 0 4 -9 -3 -19 -10 -17 -13 -17 -27 -3 -12 11 -13
16 -3 20 6 2 13 11 13 20 1 15 2 15 6 0 2 -10 9 -18 14 -18z m1015 15 c9 -8
11 -15 5 -15 -6 0 -11 -9 -11 -21 0 -15 5 -19 15 -15 8 3 15 1 15 -3 0 -15
-28 -20 -38 -8 -15 17 -19 77 -6 77 3 0 12 -7 20 -15z m-1616 -6 c0 -5 -7 -9
-15 -9 -8 0 -15 -9 -15 -20 0 -11 5 -20 12 -20 9 0 9 -3 1 -11 -21 -21 -40 -3
-35 32 3 28 8 34 28 35 13 1 24 -2 24 -7z m61 -5 c10 -13 10 -17 -1 -24 -8 -5
-18 -6 -22 -4 -4 3 -8 0 -8 -5 0 -6 8 -11 17 -11 13 0 14 -3 5 -12 -8 -8 -15
-8 -27 2 -18 15 -20 56 -2 63 20 9 24 8 38 -9z m66 -21 c3 -35 -7 -46 -31 -37
-24 9 -19 23 7 18 l22 -5 -22 12 c-33 18 -28 53 6 47 9 -2 17 -16 18 -35z m68
27 c3 -6 -4 -10 -17 -11 l-23 0 23 -10 c15 -5 22 -15 20 -26 -4 -20 -39 -25
-45 -6 -3 7 4 10 19 7 l23 -5 -22 10 c-22 10 -30 31 -16 44 10 10 31 8 38 -3z
m143 -9 c3 -10 0 -12 -13 -8 -22 9 -36 0 -28 -19 3 -10 13 -12 27 -8 20 6 20
5 4 -12 -14 -14 -20 -15 -32 -4 -9 7 -16 20 -16 29 0 36 47 54 58 22z m138 8
c3 -5 -2 -9 -12 -9 -13 0 -15 -6 -10 -30 4 -24 2 -30 -12 -30 -14 0 -17 9 -17
39 0 33 3 39 22 39 13 0 26 -4 29 -9z m402 -1 c28 -28 -3 -83 -33 -58 -18 15
-20 56 -2 63 19 8 22 8 35 -5z m82 3 c3 -1 -5 -6 -17 -11 -23 -9 -32 -40 -13
-40 6 0 10 -4 10 -10 0 -5 -8 -10 -18 -10 -14 0 -17 8 -17 39 0 36 2 39 25 36
14 -1 27 -4 30 -4z m110 -27 c0 -13 5 -24 10 -24 6 0 10 -4 10 -10 0 -5 -11
-10 -25 -10 -14 0 -25 5 -25 10 0 6 5 10 11 10 7 0 9 11 5 30 -3 19 -2 29 4
25 6 -3 10 -17 10 -31z m78 23 c14 -10 16 -67 2 -67 -5 0 -10 14 -10 30 0 17
-5 30 -11 30 -6 0 -9 -11 -7 -25 2 -13 -1 -24 -6 -25 -5 0 -10 15 -11 35 -2
35 11 42 43 22z m140 1 c28 -28 -3 -83 -33 -58 -18 15 -20 56 -2 63 19 8 22 8
35 -5z m142 -8 c8 -14 8 -26 0 -40 -13 -24 -23 -25 -44 -4 -19 18 -19 20 -6
45 14 25 36 24 50 -1z m68 -22 c2 -22 -1 -38 -7 -38 -6 0 -11 14 -11 31 0 19
-4 28 -11 23 -6 -3 -8 -17 -5 -30 4 -14 2 -24 -4 -24 -5 0 -10 17 -10 39 0 33
3 38 23 37 18 -1 23 -8 25 -38z m270 30 c19 -19 14 -28 -13 -28 -14 0 -25 -5
-25 -11 0 -6 9 -9 20 -6 20 5 28 -7 11 -17 -19 -12 -41 7 -41 33 0 41 22 55
48 29z m140 -7 c3 -9 -2 -11 -17 -6 -17 5 -21 2 -21 -15 0 -17 5 -21 20 -17
24 6 27 -8 3 -17 -18 -7 -43 16 -43 39 0 31 48 45 58 16z m56 13 c20 -8 21
-48 1 -64 -30 -25 -61 30 -33 58 14 14 12 14 32 6z m74 -7 c14 -10 16 -67 2
-67 -5 0 -10 14 -10 30 0 17 -5 30 -11 30 -6 0 -9 -11 -7 -25 2 -13 -1 -24 -6
-25 -5 0 -10 15 -11 35 -2 35 11 42 43 22z m70 -24 c-2 -30 -7 -38 -22 -38
-11 0 -21 6 -24 14 -3 10 2 11 19 6 l24 -8 -24 20 c-27 22 -22 43 10 43 17 0
20 -6 17 -37z m70 25 c28 -28 -3 -83 -33 -58 -15 13 -20 51 -8 63 10 11 28 8
41 -5z m3466 -67 c12 -13 16 -31 13 -58 l-4 -38 -1 42 c-2 31 -8 46 -24 57
-12 9 -18 16 -12 16 6 0 19 -9 28 -19z m-3376 -103 l3 -88 -451 0 -450 0 0 90
0 90 448 -2 447 -3 3 -87z m-2036 11 c-2 -19 0 -21 10 -11 17 17 33 15 18 -3
-10 -12 -10 -18 0 -30 7 -9 10 -18 6 -22 -3 -4 -13 2 -22 13 -8 10 -13 14 -10
7 4 -6 2 -14 -3 -17 -5 -3 -11 17 -13 44 -2 30 1 49 7 46 6 -2 9 -14 7 -27z
m358 -9 c0 -22 5 -40 10 -40 6 0 10 -4 10 -10 0 -5 -12 -10 -27 -10 -21 0 -24
3 -15 12 7 7 12 24 12 38 0 14 -5 31 -12 38 -9 9 -8 12 5 12 13 0 17 -9 17
-40z m191 13 c0 -16 3 -22 6 -15 2 6 12 12 20 12 13 0 13 -3 3 -15 -10 -12
-10 -18 0 -30 7 -9 10 -18 6 -22 -3 -4 -13 2 -21 13 -13 17 -14 17 -15 2 0
-10 -3 -18 -8 -18 -4 0 -7 22 -7 50 0 51 14 72 16 23z m409 12 c0 -8 7 -15 15
-15 8 0 15 -9 15 -19 0 -11 3 -26 6 -35 3 -9 1 -16 -5 -16 -6 0 -11 14 -11 31
0 17 -4 28 -10 24 -5 -3 -10 -17 -10 -31 0 -13 -3 -24 -7 -24 -5 0 -8 23 -8
50 0 28 3 50 8 50 4 0 7 -7 7 -15z m-1265 -40 c0 -33 -4 -40 -19 -40 -26 0
-40 26 -32 59 5 21 12 27 29 24 18 -3 22 -9 22 -43z m193 25 c15 -1 15 -2 0
-14 -22 -16 -23 -36 -3 -36 8 0 15 -5 15 -11 0 -22 -34 -3 -41 24 -8 28 1 73
9 49 2 -7 11 -12 20 -12z m884 -18 c-17 -5 -15 -32 3 -32 8 0 15 -5 15 -11 0
-22 -34 -3 -41 24 -11 42 -2 61 19 40 12 -12 13 -18 4 -21z m136 21 c12 -12
13 -18 4 -21 -6 -2 -12 -12 -12 -23 0 -13 5 -17 17 -12 11 4 14 3 9 -5 -14
-22 -35 -12 -44 21 -8 30 -6 57 5 57 2 0 12 -8 21 -17z m-1138 -14 c0 -5 -5
-7 -10 -4 -16 10 -24 -23 -10 -40 10 -13 9 -15 -11 -15 -21 0 -24 5 -24 35 0
32 3 35 28 35 15 0 27 -5 27 -11z m198 -24 c3 -26 -1 -31 -23 -33 -19 -1 -25
3 -25 18 0 12 8 24 17 27 15 6 15 7 -3 15 -16 6 -15 7 6 5 20 -2 26 -8 28 -32z
m140 13 c2 -13 -3 -18 -18 -18 -12 0 -19 -4 -15 -10 3 -5 13 -6 22 -3 11 4 14
3 9 -5 -13 -21 -45 -13 -52 12 -3 14 -3 30 1 36 10 17 49 8 53 -12z m134 -13
c3 -31 1 -35 -18 -35 -29 0 -36 12 -28 45 10 39 41 33 46 -10z m206 2 c4 -33
-22 -47 -45 -24 -22 21 -8 59 20 55 16 -2 23 -11 25 -31z m67 -2 c0 -23 -5
-31 -22 -33 -17 -3 -24 3 -29 22 -8 32 3 48 29 44 17 -2 22 -10 22 -33z m206
-1 c5 -28 4 -31 -18 -31 -31 0 -42 26 -19 42 13 10 14 14 4 19 -7 3 -4 5 7 3
13 -1 21 -12 26 -33z m342 22 c7 -18 -1 -26 -25 -26 -11 0 -17 -4 -14 -9 3 -5
16 -7 29 -4 17 5 19 3 11 -7 -27 -28 -65 7 -50 46 7 18 42 18 49 0z m1187 -21
c-7 -8 -20 -15 -29 -14 -11 0 -9 3 7 9 12 5 22 15 22 21 0 7 3 9 6 6 4 -4 1
-13 -6 -22z m-2270 -141 l0 -75 -32 3 c-33 3 -33 3 -36 62 -4 75 1 86 38 86
l30 0 0 -76z m2393 -25 c-6 -6 -19 -9 -29 -6 -16 4 -15 5 4 6 12 0 22 6 22 13
0 6 3 8 7 5 4 -4 2 -12 -4 -18z m0 -79 c11 -13 10 -13 -5 -1 -10 7 -17 25 -17
40 l2 26 4 -25 c3 -14 10 -32 16 -40z m2977 15 c-7 -8 -20 -15 -29 -14 -11 0
-9 3 7 9 12 5 22 15 22 21 0 7 3 9 6 6 4 -4 1 -13 -6 -22z m117 -194 c16 13
17 13 4 -3 -17 -22 -35 -23 -52 -1 -13 15 -12 15 8 3 18 -12 24 -12 40 1z
m-2672 -101 c-3 -5 -20 -19 -38 -30 -32 -22 -32 -22 3 9 37 32 45 37 35 21z
m2326 -27 c13 -17 12 -17 -4 -4 -16 13 -22 13 -40 1 -20 -12 -21 -12 -8 3 17
22 35 21 52 0z m-4 -72 c16 13 17 13 4 -3 -17 -22 -35 -23 -52 -1 -13 15 -12
15 8 3 18 -12 24 -12 40 1z m-2562 -34 c19 -4 19 -5 -1 -6 -12 0 -28 7 -35 17
-12 15 -12 16 1 6 8 -7 24 -14 35 -17z m2863 6 c-14 -13 -21 -14 -40 -5 -22
11 -22 11 3 6 15 -3 30 -1 33 5 4 6 10 11 14 11 3 0 -1 -8 -10 -17z m-324 -22
c10 -11 16 -29 13 -43 -4 -21 -4 -21 -6 4 0 15 -11 34 -23 42 -12 9 -18 16
-12 16 6 0 19 -9 28 -19z m-1713 -8 c13 -16 12 -17 -3 -4 -10 7 -27 11 -38 8
-11 -3 -18 -1 -14 4 9 15 41 10 55 -8z m1519 -42 c0 -5 -8 -11 -17 -15 -10 -3
-25 -9 -33 -12 -8 -3 -1 4 15 15 34 24 35 24 35 12z m-1412 -24 c17 6 15 -4
-2 -10 -8 -3 -22 4 -33 16 -18 22 -18 22 2 6 11 -9 26 -14 33 -12z m32 -92
c-14 -16 -46 -20 -54 -6 -3 4 6 6 19 3 17 -3 27 1 31 12 4 9 9 15 12 12 3 -3
-1 -12 -8 -21z m105 -8 c19 -4 19 -5 -1 -6 -12 0 -28 7 -35 17 -12 15 -12 16
1 6 8 -7 24 -14 35 -17z m80 13 c25 -11 -1 -11 -35 0 -20 6 -21 8 -5 8 11 0
29 -3 40 -8z m1125 -7 c0 -3 -7 -3 -15 1 -10 3 -15 -1 -15 -11 0 -9 -3 -14 -6
-10 -12 12 5 37 21 31 8 -3 15 -8 15 -11z m-190 -30 c-14 -3 -34 -12 -45 -21
-20 -17 -20 -17 -1 6 12 13 29 21 45 21 l26 -2 -25 -4z m30 -87 c-25 -25 -65
-29 -81 -10 -13 16 -12 16 7 4 17 -11 26 -10 50 3 38 19 41 20 24 3z m-526
-15 c4 -5 -3 -7 -14 -4 -12 3 -30 -2 -43 -13 l-22 -19 19 23 c19 22 50 29 60
13z m-141 -81 c11 -13 10 -13 -5 -1 -10 7 -17 25 -17 40 l2 26 4 -25 c3 -14
10 -32 16 -40z m136 -4 c-23 -20 -23 -20 -6 0 9 11 18 31 18 45 l2 24 4 -24
c3 -16 -3 -31 -18 -45z m232 -93 c13 -17 12 -17 -4 -4 -16 13 -22 13 -40 1
-20 -12 -21 -12 -8 3 17 22 35 21 52 0z m-101 -26 c-14 -8 -27 -12 -30 -10 -7
6 23 23 40 23 8 0 4 -6 -10 -13z"/>
<path d="M4720 1760 c0 -11 7 -20 15 -20 8 0 15 9 15 20 0 11 -7 20 -15 20 -8
0 -15 -9 -15 -20z"/>
<path d="M4515 1770 c-4 -6 -3 -16 3 -22 6 -6 12 -6 17 2 4 6 3 16 -3 22 -6 6
-12 6 -17 -2z"/>
<path d="M2600 1760 c0 -11 7 -20 15 -20 8 0 15 9 15 20 0 11 -7 20 -15 20 -8
0 -15 -9 -15 -20z"/>
<path d="M2947 1773 c-13 -12 -7 -33 8 -33 8 0 15 9 15 20 0 20 -11 26 -23 13z"/>
<path d="M3150 1760 c0 -13 5 -20 13 -17 6 2 12 10 12 17 0 7 -6 15 -12 18 -8
2 -13 -5 -13 -18z"/>
<path d="M3425 1770 c-4 -6 -3 -16 3 -22 6 -6 12 -6 17 2 4 6 3 16 -3 22 -6 6
-12 6 -17 -2z"/>
<path d="M4315 1770 c-7 -12 2 -30 16 -30 5 0 9 9 9 20 0 21 -15 27 -25 10z"/>
<path d="M5065 1770 c-4 -6 -3 -16 3 -22 6 -6 12 -6 17 2 4 6 3 16 -3 22 -6 6
-12 6 -17 -2z"/>
<path d="M5132 1766 c1 -10 8 -17 13 -17 15 1 12 24 -3 29 -9 3 -13 -2 -10
-12z"/>
<path d="M5470 1760 c0 -11 7 -20 15 -20 8 0 15 9 15 20 0 11 -7 20 -15 20 -8
0 -15 -9 -15 -20z"/>
<path d="M2332 1641 c4 -13 18 -16 19 -4 0 4 -5 9 -11 12 -7 2 -11 -2 -8 -8z"/>
<path d="M3285 1620 c-7 -12 2 -30 16 -30 5 0 9 9 9 20 0 21 -15 27 -25 10z"/>
<path d="M3695 1620 c-7 -12 2 -30 16 -30 5 0 9 9 9 20 0 21 -15 27 -25 10z"/>
<path d="M3830 1610 c0 -11 7 -20 15 -20 8 0 15 9 15 20 0 11 -7 20 -15 20 -8
0 -15 -9 -15 -20z"/>
<path d="M4380 1610 c0 -13 5 -20 13 -17 6 2 12 10 12 17 0 7 -6 15 -12 18 -8
2 -13 -5 -13 -18z"/>
<path d="M4582 1613 c5 -25 28 -28 28 -4 0 12 -6 21 -16 21 -9 0 -14 -7 -12
-17z"/>
<path d="M3822 1468 l2 -53 3 48 c3 32 8 47 16 44 17 -5 21 -68 5 -79 -10 -8
-10 -9 2 -5 19 5 26 63 9 83 -25 30 -39 16 -37 -38z"/>
<path d="M4449 1498 c-3 -33 4 -64 17 -76 9 -8 10 -8 4 0 -12 15 -13 55 -1 60
5 2 3 9 -5 16 -11 10 -14 10 -15 0z"/>
<path d="M3897 1483 c-4 -3 -7 -19 -7 -34 0 -29 21 -44 39 -26 12 12 15 53 3
60 -4 3 -7 -7 -7 -21 0 -15 -4 -27 -10 -27 -5 0 -10 12 -10 28 0 15 0 27 -1
27 0 0 -4 -3 -7 -7z"/>
<path d="M3967 1483 c-19 -19 1 -73 27 -73 5 0 2 6 -9 13 -12 10 -16 22 -13
40 6 29 5 31 -5 20z"/>
<path d="M4030 1456 c0 -19 3 -37 8 -40 4 -2 6 13 4 35 -5 48 -12 51 -12 5z"/>
<path d="M4092 1453 c1 -37 1 -37 5 -5 6 42 40 46 46 5 4 -26 4 -26 3 2 -1 25
-6 31 -28 33 -26 3 -28 1 -26 -35z"/>
<path d="M4180 1483 c8 -3 18 -11 22 -17 5 -7 8 -4 8 7 0 11 -7 17 -22 16 -16
0 -18 -2 -8 -6z"/>
<path d="M4230 1453 c0 -43 5 -41 13 5 4 18 2 32 -3 32 -6 0 -10 -16 -10 -37z"/>
<path d="M4269 1452 c5 -34 6 -35 9 -8 2 16 0 32 -5 37 -5 5 -7 -7 -4 -29z"/>
<path d="M4404 1458 c1 -18 -5 -33 -13 -36 -10 -3 -12 1 -8 17 3 11 1 19 -4
15 -12 -7 -12 -31 0 -38 19 -12 41 7 41 34 0 16 -4 31 -8 34 -4 3 -8 -9 -8
-26z"/>
<path d="M4528 1455 c2 -19 6 -35 8 -35 2 0 4 16 4 35 0 19 -4 35 -8 35 -4 0
-6 -16 -4 -35z"/>
<path d="M4580 1482 c0 -4 9 -8 20 -8 11 0 20 4 20 8 0 4 -9 8 -20 8 -11 0
-20 -4 -20 -8z"/>
<path d="M4678 1455 c2 -19 6 -35 8 -35 2 0 4 16 4 35 0 19 -4 35 -8 35 -4 0
-6 -16 -4 -35z"/>
<path d="M4160 1453 c0 -27 27 -50 41 -36 8 8 6 11 -7 10 -12 -1 -19 5 -19 15
0 9 -4 20 -8 24 -4 4 -7 -2 -7 -13z"/>
<path d="M4583 1430 c2 -8 10 -15 17 -15 7 0 15 7 17 15 4 13 3 13 -6 0 -10
-13 -12 -13 -22 0 -9 13 -10 13 -6 0z"/>
<path d="M2325 1469 c-5 -13 -1 -27 8 -37 14 -14 16 -13 22 11 11 43 -17 67
-30 26z"/>
<path d="M3084 1456 c-4 -10 -2 -22 4 -28 8 -8 13 -7 18 6 4 10 2 22 -4 28 -8
8 -13 7 -18 -6z"/>
<path d="M3152 1449 c1 -13 8 -23 13 -21 15 3 12 35 -3 40 -9 3 -13 -3 -10
-19z"/>
</g>
</svg>
